<svg width="32" height="19" viewBox="0 0 32 19" fill="none" xmlns="http://www.w3.org/2000/svg">
<path d="M12.2188 0.333984C11.5178 0.333984 10.9489 0.902914 10.9489 1.60387V7.95305H3.32981V1.60387C3.32981 0.902914 2.76088 0.333984 2.05992 0.333984C1.35897 0.333984 0.790039 0.902914 0.790039 1.60387V9.22294C0.790039 9.92389 1.35897 10.4928 2.05992 10.4928H10.9489V16.842C10.9489 17.543 11.5178 18.1119 12.2188 18.1119C12.9197 18.1119 13.4886 17.543 13.4886 16.842V1.60387C13.4885 0.902914 12.9197 0.333984 12.2188 0.333984Z" fill="black"/>
<path d="M29.997 2.87375C30.6979 2.87375 31.2669 2.30482 31.2669 1.60387C31.2669 0.902914 30.6979 0.333984 29.997 0.333984H19.8382C19.1373 0.333984 18.5684 0.902914 18.5684 1.60387V16.842C18.5684 17.543 19.1373 18.1119 19.8382 18.1119H29.997C30.6979 18.1119 31.2669 17.543 31.2669 16.842V9.22294C31.2669 8.52198 30.6979 7.95305 29.997 7.95305H24.9175C24.2166 7.95305 23.6477 8.52198 23.6477 9.22294C23.6477 9.92389 24.2166 10.4928 24.9175 10.4928H28.7271V15.5722H21.108V2.87375H29.997Z" fill="black"/>
</svg>
