<svg width="53" height="61" viewBox="0 0 53 61" fill="none" xmlns="http://www.w3.org/2000/svg">
<path d="M23.6109 58.9154H17.8328C17.8328 58.9154 17.8328 58.9154 17.9307 58.9154L18.4694 56.7673L23.7088 52.5556C23.7088 52.2342 23.8394 51.9297 23.8884 51.6083C23.5694 49.9359 23.3892 48.2383 23.3498 46.534C23.3498 44.2167 23.3498 40.0726 23.3498 35.844V34.1525L2 40.7661L2.44069 37.8568L23.3334 24.1391V21.9741C23.3334 17.7454 23.3334 13.6014 23.3334 11.2672C23.3334 7.73202 24.3454 1.01695 26.4837 1.00003C28.6219 0.983117 29.6502 7.76585 29.6666 11.2672V24.0715L50.5593 37.7892L51 40.7154L29.6502 34.1356V35.8271C29.6502 40.0388 29.6502 44.1998 29.6502 46.534C29.611 48.2766 29.4363 50.0132 29.1279 51.7267V52.4879L34.498 56.8011L35.053 59L28.7525 58.8139L23.6109 58.9154Z" fill="#EFF0F7" stroke="#262626" stroke-width="2"/>
</svg>
