<svg width="130" height="30" viewBox="0 0 130 30" fill="none" xmlns="http://www.w3.org/2000/svg">
<path d="M45.3582 22.0334H40.1353L38.8592 25.5031H36.5742L41.6784 12.4844H43.8447L49.0676 25.5031H46.6639L45.3582 22.0334ZM40.7882 20.2541H44.6757L43.2809 16.5175C43.1029 16.0134 42.8951 15.4203 42.7171 14.7975C42.539 15.3609 42.361 15.9244 42.1829 16.4879L40.7882 20.2541Z" fill="white"/>
<path d="M49.9871 18.1777C49.9871 17.4659 49.9574 16.6653 49.9277 15.8052H52.005C52.0941 16.2204 52.1237 16.6059 52.1534 17.0211C53.014 16.0721 53.9933 15.5977 55.121 15.5977C55.7738 15.5977 56.3673 15.7459 56.9312 16.0721C57.495 16.3984 57.9402 16.9025 58.2666 17.6142C58.593 18.326 58.7711 19.2156 58.7711 20.2832C58.7711 21.4101 58.5633 22.3887 58.1776 23.1894C57.7918 23.9901 57.2576 24.6129 56.5454 24.9984C55.8629 25.4136 55.0616 25.6212 54.1417 25.6212C53.4888 25.6212 52.8359 25.5026 52.1831 25.295V29.3578L49.9574 29.5357V18.1777H49.9871ZM55.8332 23.1301C56.2783 22.537 56.5157 21.6474 56.5157 20.4611C56.5157 19.3639 56.3377 18.5928 55.9519 18.1184C55.5661 17.6439 55.0913 17.377 54.4681 17.377C54.023 17.377 53.6372 17.4659 53.2811 17.6735C52.925 17.8811 52.5689 18.148 52.2424 18.5039V23.6936C52.4502 23.8122 52.7172 23.9012 53.014 23.9605C53.3108 24.0198 53.6075 24.0494 53.8746 24.0494C54.7055 24.0494 55.3584 23.7529 55.8332 23.1301Z" fill="white"/>
<path d="M60.1062 18.1777C60.1062 17.4659 60.0766 16.6653 60.0469 15.8052H62.1242C62.2132 16.2204 62.2429 16.6059 62.2725 17.0211C63.1331 16.0721 64.1124 15.5977 65.2401 15.5977C65.893 15.5977 66.4865 15.7459 67.0503 16.0721C67.6142 16.3984 68.0593 16.9025 68.3857 17.6142C68.7122 18.326 68.8902 19.2156 68.8902 20.2832C68.8902 21.4101 68.6825 22.3887 68.2967 23.1894C67.9109 23.9901 67.3767 24.6129 66.6645 24.9984C65.982 25.4136 65.1808 25.6212 64.2608 25.6212C63.6079 25.6212 62.9551 25.5026 62.3022 25.295V29.3578L60.0765 29.5357V18.1777H60.1062ZM65.9523 23.1301C66.3975 22.537 66.6349 21.6474 66.6349 20.4611C66.6349 19.3639 66.4568 18.5928 66.071 18.1184C65.6852 17.6439 65.2104 17.377 64.5872 17.377C64.1421 17.377 63.7563 17.4659 63.4002 17.6735C63.0441 17.8811 62.688 18.148 62.3616 18.5039V23.6936C62.5693 23.8122 62.8364 23.9012 63.1331 23.9605C63.4299 24.0198 63.7266 24.0494 63.9937 24.0494C64.8246 24.0494 65.5072 23.7529 65.9523 23.1301Z" fill="white"/>
<path d="M72.9558 24.8782C72.0062 24.3444 71.2643 23.603 70.7598 22.5947C70.2554 21.6161 69.9883 20.4299 69.9883 19.0954C69.9883 17.6423 70.285 16.3968 70.8785 15.3885C71.4721 14.3802 72.2733 13.6092 73.3119 13.105C74.3209 12.6009 75.4783 12.334 76.7543 12.334C77.4962 12.334 78.2084 12.423 78.891 12.5712C79.5735 12.7492 80.1967 12.9567 80.7902 13.2533L80.2264 14.9733C79.0393 14.4099 77.9117 14.143 76.8433 14.143C75.9531 14.143 75.1518 14.3505 74.4693 14.7361C73.7868 15.1216 73.2526 15.685 72.8965 16.4264C72.5107 17.1678 72.3327 18.0871 72.3327 19.1251C72.3327 20.0444 72.481 20.8747 72.7778 21.5865C73.0745 22.2982 73.5197 22.8616 74.1429 23.3065C74.7661 23.7216 75.5673 23.9292 76.5169 23.9292C76.962 23.9292 77.3775 23.8996 77.8226 23.8106C78.2678 23.7217 78.6536 23.6327 79.0393 23.4844V20.8451H76.0421V19.1251H81.2057V24.6113C80.4638 24.9672 79.6922 25.2341 78.8613 25.412C78.0304 25.5899 77.2291 25.6789 76.4279 25.6789C75.0628 25.6789 73.9351 25.412 72.9558 24.8782Z" fill="white"/>
<path d="M89.0111 25.5018C88.9221 25.1163 88.8924 24.7011 88.8627 24.2267C88.5066 24.6418 88.0912 24.968 87.5273 25.2646C86.9932 25.5611 86.37 25.6798 85.6578 25.6798C85.0939 25.6798 84.5894 25.5611 84.1443 25.3536C83.6992 25.146 83.3134 24.8198 83.0463 24.3749C82.7792 23.9301 82.6309 23.3963 82.6309 22.7735C82.6309 21.8246 82.9573 21.0832 83.6398 20.5197C84.3224 19.9563 85.45 19.6894 87.0228 19.6894C87.6164 19.6894 88.2099 19.719 88.7737 19.808V19.6301C88.7737 18.7701 88.5957 18.177 88.2396 17.8211C87.8834 17.4652 87.3493 17.2873 86.6667 17.2873C86.1919 17.2873 85.6874 17.3466 85.1533 17.4949C84.6191 17.6432 84.1443 17.7914 83.7289 17.999L83.3727 16.3976C83.7585 16.2197 84.2927 16.0418 84.9456 15.8935C85.5984 15.7452 86.281 15.6562 86.9932 15.6562C87.8241 15.6562 88.5363 15.7749 89.1298 16.0418C89.7233 16.3087 90.1685 16.7238 90.4949 17.3466C90.8213 17.9694 90.9994 18.7997 90.9994 19.8377V23.6929C90.9994 24.108 91.0291 24.7011 91.0587 25.5018H89.0111ZM87.7054 23.6929C88.1802 23.4853 88.5363 23.1887 88.8331 22.8625V21.0535C88.2396 20.9942 87.7351 20.9646 87.3493 20.9646C86.4293 20.9646 85.8062 21.1128 85.45 21.4094C85.0939 21.7059 84.9159 22.0915 84.9159 22.5956C84.9159 23.0701 85.0346 23.426 85.3017 23.6632C85.5687 23.9004 85.8952 24.0191 86.3403 24.0191C86.7854 24.0487 87.2306 23.9301 87.7054 23.6929Z" fill="white"/>
<path d="M92.75 23.1894V11.7424L94.946 11.5645V22.8038C94.946 23.219 95.0053 23.5156 95.1537 23.6935C95.3021 23.8714 95.5098 23.9604 95.8363 23.9604C95.9846 23.9604 96.1627 23.9307 96.4298 23.8714L96.6969 25.4728C96.4891 25.5618 96.222 25.6211 95.9253 25.6804C95.6285 25.7397 95.3318 25.7694 95.0647 25.7694C93.5216 25.6804 92.75 24.8501 92.75 23.1894Z" fill="white"/>
<path d="M98.2695 23.1894V11.7424L100.466 11.5645V22.8038C100.466 23.219 100.525 23.5156 100.673 23.6935C100.822 23.8714 101.029 23.9604 101.356 23.9604C101.504 23.9604 101.682 23.9307 101.949 23.8714L102.216 25.4728C102.009 25.5618 101.742 25.6211 101.445 25.6804C101.148 25.7397 100.851 25.7694 100.584 25.7694C99.0411 25.6804 98.2695 24.8501 98.2695 23.1894Z" fill="white"/>
<path d="M111.297 20.9356H104.947C105.036 22.9522 106.015 23.9901 107.855 23.9901C108.3 23.9901 108.775 23.9308 109.25 23.8122C109.725 23.6936 110.17 23.5453 110.615 23.3674L111.09 24.8798C109.992 25.4136 108.775 25.6805 107.439 25.6805C106.401 25.6805 105.54 25.4729 104.828 25.0874C104.116 24.7019 103.582 24.1384 103.226 23.397C102.869 22.6556 102.691 21.7956 102.691 20.7577C102.691 19.6901 102.869 18.7708 103.255 17.9997C103.641 17.2287 104.146 16.6356 104.828 16.2204C105.511 15.8052 106.282 15.5977 107.172 15.5977C108.092 15.5977 108.864 15.8052 109.457 16.2501C110.081 16.6653 110.526 17.2584 110.823 17.9701C111.119 18.6818 111.268 19.4825 111.268 20.3425V20.9356H111.297ZM109.131 19.5418C109.101 18.7708 108.894 18.1777 108.537 17.7922C108.181 17.4066 107.736 17.199 107.143 17.199C106.579 17.199 106.104 17.4066 105.748 17.7922C105.362 18.1777 105.125 18.7708 105.006 19.5122H109.131V19.5418Z" fill="white"/>
<path d="M112.96 18.2363C112.96 17.7025 112.93 16.9018 112.9 15.8045H114.978C115.007 16.0714 115.037 16.3976 115.067 16.7832C115.096 17.1687 115.126 17.4652 115.126 17.7025C115.393 17.2873 115.631 16.9314 115.898 16.6349C116.135 16.3383 116.432 16.1011 116.758 15.9231C117.085 15.7452 117.47 15.6562 117.886 15.6562C118.242 15.6562 118.509 15.6859 118.776 15.7749L118.509 17.7025C118.301 17.6432 118.064 17.6135 117.797 17.6135C117.263 17.6135 116.818 17.7321 116.432 17.999C116.046 18.2659 115.631 18.7108 115.185 19.3039V25.5315H112.989V18.2363H112.96Z" fill="white"/>
<path d="M120.022 29.4758C119.696 29.4165 119.428 29.3572 119.221 29.2682L119.636 27.6668C119.785 27.6965 119.963 27.7558 120.2 27.7855C120.437 27.8151 120.645 27.8448 120.853 27.8448C121.832 27.8448 122.574 27.222 123.049 25.9468L123.197 25.591L119.636 15.8343H122.01L123.82 21.2909C124.117 22.2103 124.295 22.9516 124.384 23.4261C124.562 22.7144 124.74 22.0323 124.978 21.3206L126.788 15.8047H129.014L125.453 25.6206C125.126 26.5399 124.74 27.311 124.355 27.8744C123.969 28.4379 123.494 28.8531 122.99 29.1496C122.455 29.4165 121.832 29.5648 121.061 29.5648C120.704 29.5648 120.348 29.5351 120.022 29.4758Z" fill="white"/>
<path d="M36.5742 0.121094H40.5211L40.4024 1.07007H37.7316V2.9087H40.254V3.79836H37.7316V5.84458H40.5507L40.4617 6.79355H36.5742V0.121094Z" fill="white"/>
<path d="M43.2518 3.41284L41.1745 0.121094H42.4803L43.9047 2.52318L45.3885 0.121094H46.6645L44.5872 3.35353L46.8129 6.82321H45.4775L43.875 4.18388L42.2428 6.82321H40.9668L43.2518 3.41284Z" fill="white"/>
<path d="M47.6719 0.121094H49.4821C50.3427 0.121094 50.9955 0.299026 51.4407 0.654891C51.8858 1.01076 52.1232 1.5149 52.1232 2.16731C52.1232 2.61214 52.0342 2.99767 51.8265 3.32387C51.6187 3.65008 51.3517 3.91698 50.9659 4.09491C50.6098 4.27285 50.1943 4.36181 49.7195 4.36181C49.4524 4.36181 49.1557 4.33216 48.8292 4.27285V6.82321H47.6719V0.121094ZM50.5801 3.11629C50.8175 2.87904 50.9362 2.58249 50.9362 2.16731C50.9362 1.75214 50.8175 1.45559 50.5504 1.27765C50.313 1.09972 49.9272 1.01075 49.4524 1.01075H48.8292V3.38319C49.126 3.4425 49.3337 3.4425 49.4821 3.4425C49.9866 3.4425 50.3427 3.32387 50.5801 3.11629Z" fill="white"/>
<path d="M53.2812 0.121094H54.4386V5.84458H57.2281L57.1391 6.82321H53.3109V0.121094H53.2812Z" fill="white"/>
<path d="M58.9803 6.49453C58.4758 6.22763 58.1197 5.81246 57.8526 5.30831C57.5855 4.80417 57.4668 4.21106 57.4668 3.52899C57.4668 2.81726 57.6152 2.1945 57.8823 1.6607C58.1493 1.1269 58.5648 0.711729 59.0693 0.444831C59.6034 0.148277 60.197 0 60.9092 0C61.5917 0 62.1555 0.148277 62.66 0.415175C63.1348 0.682074 63.5206 1.09725 63.7877 1.60139C64.0548 2.10553 64.1735 2.69864 64.1735 3.35106C64.1735 4.06279 64.0251 4.68555 63.758 5.21935C63.4909 5.75314 63.0755 6.16832 62.571 6.43522C62.0665 6.73177 61.4433 6.88005 60.7608 6.88005C60.0486 6.9097 59.4551 6.76143 58.9803 6.49453ZM61.9775 5.66418C62.3039 5.45659 62.5413 5.16004 62.7194 4.77452C62.8678 4.389 62.9568 3.94417 62.9568 3.46968C62.9568 2.99519 62.8974 2.55036 62.7491 2.1945C62.6007 1.80898 62.3929 1.51242 62.0665 1.30484C61.7401 1.06759 61.3543 0.978627 60.8498 0.978627C60.375 0.978627 59.9892 1.09725 59.6628 1.30484C59.3364 1.54208 59.099 1.83863 58.9209 2.22415C58.7429 2.60967 58.6835 3.02485 58.6835 3.49933C58.6835 3.97382 58.7725 4.41865 58.9209 4.80417C59.0693 5.18969 59.3067 5.48625 59.6331 5.72349C59.9595 5.96073 60.3453 6.0497 60.8201 6.0497C61.2653 5.99039 61.6511 5.90142 61.9775 5.66418Z" fill="white"/>
<path d="M65.4492 0.121094H67.5562C68.3278 0.121094 68.8916 0.269371 69.307 0.565924C69.7225 0.862478 69.9006 1.30731 69.9006 1.87076C69.9006 2.22663 69.8412 2.55283 69.6928 2.81973C69.5445 3.08663 69.3664 3.32387 69.1587 3.47215C68.9509 3.65008 68.7432 3.7687 68.5058 3.85767L70.5831 6.82321H69.218L67.4672 4.15422H66.6066V6.82321H65.4492V0.121094ZM67.2594 3.29422C67.5265 3.29422 67.7936 3.23491 68.0013 3.11629C68.209 2.99767 68.3871 2.84939 68.5058 2.6418C68.6245 2.43421 68.6839 2.19697 68.6839 1.95973C68.6839 1.63352 68.5652 1.36662 68.3574 1.21834C68.1497 1.07007 67.8233 0.981099 67.4375 0.981099H66.6066V3.26456H67.2594V3.29422Z" fill="white"/>
<path d="M71.4727 0.121094H75.4195L75.3008 1.07007H72.63V2.9087H75.1524V3.79836H72.63V5.84458H75.4492L75.3602 6.79355H71.4727V0.121094Z" fill="white"/>
<path d="M79.7227 0.121094H80.88V6.82321H79.7227V0.121094Z" fill="white"/>
<path d="M83.966 1.06847H81.8887L81.9777 0.0898438H87.2006L87.0819 1.06847H85.0936V6.82162H83.9363V1.06847H83.966Z" fill="white"/>
<path d="M92.2459 6.49453C91.7414 6.22763 91.3853 5.81246 91.1182 5.30831C90.8511 4.80417 90.7324 4.21106 90.7324 3.52899C90.7324 2.81726 90.8808 2.1945 91.1479 1.6607C91.415 1.1269 91.8304 0.711729 92.3349 0.444831C92.8691 0.148277 93.4626 0 94.1748 0C94.8573 0 95.4212 0.148277 95.9256 0.415175C96.4005 0.682074 96.7862 1.09725 97.0533 1.60139C97.3204 2.10553 97.4391 2.69864 97.4391 3.35106C97.4391 4.06279 97.2907 4.68555 97.0236 5.21935C96.7566 5.75314 96.3411 6.16832 95.8366 6.43522C95.3321 6.73177 94.709 6.88005 94.0264 6.88005C93.3142 6.9097 92.7207 6.76143 92.2459 6.49453ZM95.2431 5.66418C95.5695 5.45659 95.8069 5.16004 95.985 4.77452C96.1334 4.389 96.2224 3.94417 96.2224 3.46968C96.2224 2.99519 96.163 2.55036 96.0147 2.1945C95.8663 1.80898 95.6586 1.51242 95.3321 1.30484C95.0057 1.06759 94.6199 0.978627 94.1154 0.978627C93.6406 0.978627 93.2548 1.09725 92.9284 1.30484C92.602 1.54208 92.3646 1.83863 92.1865 2.22415C92.0085 2.60967 91.9491 3.02485 91.9491 3.49933C91.9491 3.97382 92.0381 4.41865 92.1865 4.80417C92.3349 5.18969 92.5723 5.48625 92.8987 5.72349C93.2252 5.96073 93.6109 6.0497 94.0858 6.0497C94.5012 5.99039 94.9167 5.90142 95.2431 5.66418Z" fill="white"/>
<path d="M98.7148 0.121094H100.05L103.374 5.31078C103.344 4.80664 103.344 4.36181 103.344 3.94664V0.121094H104.413V6.82321H103.136L99.7535 1.54455C99.7832 2.13766 99.8128 2.67146 99.8128 3.14594V6.82321H98.7445V0.121094H98.7148Z" fill="white"/>
<path fill-rule="evenodd" clip-rule="evenodd" d="M20.2544 0.148438H7.93901C2.12259 0.148438 0.015625 2.28362 0.015625 8.06642V20.3734C0.015625 26.1859 2.15227 28.2914 7.93901 28.2914H20.2544C26.0708 28.2914 28.1778 26.1562 28.1778 20.3734V8.06642C28.2075 2.28362 26.0708 0.148438 20.2544 0.148438Z" fill="#C8102E"/>
<path d="M5.59551 14.2344H6.3374V17.9116H5.59551V16.4289H3.904V17.9116H3.16211V14.2344H3.904V15.7171H5.59551V14.2344ZM9.80945 16.3399C9.80945 16.933 9.51269 17.2592 8.97853 17.2592C8.44437 17.2592 8.14761 16.933 8.14761 16.3103V14.2344H7.40572V16.3399C7.40572 17.3778 7.96956 17.971 8.97853 17.971C9.9875 17.971 10.581 17.3778 10.581 16.3103V14.2344H9.83912V16.3399H9.80945ZM18.445 16.7551L17.6141 14.2344H16.9909L16.16 16.7551L15.3588 14.2344H14.5575L15.8336 17.9116H16.4568L17.2877 15.4799L18.1186 17.9116H18.7418L20.0179 14.2344H19.2463L18.445 16.7551ZM21.3829 16.3399H22.748V15.6578H21.3829V14.9164H23.3712V14.2344H20.6707V17.9116H23.4602V17.2296H21.4126V16.3399H21.3829ZM24.3208 17.9116H25.0627V14.2344H24.3208V17.9116ZM12.0351 17.1406L11.7087 17.9116H10.9371L12.5396 14.2344H13.1925L14.7949 17.9116H14.0234L13.7266 17.1406H12.0351ZM12.3022 16.4882H13.4299L12.866 15.1833L12.3022 16.4882Z" fill="white"/>
<path d="M14.1126 9.54883C11.5308 9.54883 9.42383 7.4433 9.42383 4.86328H10.0767C10.0767 7.08743 11.8869 8.89641 14.1126 8.89641C16.3383 8.89641 18.1485 7.08743 18.1485 4.86328H18.8013C18.8013 7.4433 16.6944 9.54883 14.1126 9.54883Z" fill="white"/>
</svg>
