<svg width="115" height="29" viewBox="0 0 115 29" fill="none" xmlns="http://www.w3.org/2000/svg">
<path d="M17.0996 13.7067C17.1121 12.7422 17.3683 11.7965 17.8444 10.9576C18.3205 10.1187 19.0011 9.41384 19.8229 8.90865C19.3008 8.16311 18.6122 7.54956 17.8115 7.11673C17.0109 6.6839 16.1204 6.44372 15.2107 6.41525C13.2702 6.21157 11.389 7.57643 10.4001 7.57643C9.39212 7.57643 7.86963 6.43548 6.23015 6.46921C5.1697 6.50347 4.1362 6.81184 3.23036 7.36428C2.32451 7.91672 1.57722 8.69439 1.06129 9.62151C-1.17363 13.4909 0.493417 19.1776 2.63428 22.3054C3.70539 23.8369 4.95722 25.5477 6.59522 25.4871C8.19809 25.4206 8.79673 24.465 10.7315 24.465C12.6484 24.465 13.21 25.4871 14.8813 25.4485C16.6012 25.4206 17.6849 23.9101 18.7184 22.3641C19.488 21.2728 20.0802 20.0666 20.4731 18.7904C19.4738 18.3677 18.6211 17.6603 18.0212 16.7563C17.4213 15.8523 17.1008 14.7917 17.0996 13.7067Z" fill="white"/>
<path d="M13.9431 4.3599C14.8809 3.23411 15.3429 1.78711 15.231 0.326172C13.7983 0.476654 12.4748 1.16141 11.5244 2.244C11.0597 2.77288 10.7037 3.38816 10.477 4.05467C10.2502 4.72118 10.157 5.42585 10.2027 6.12839C10.9193 6.13577 11.6283 5.98045 12.2762 5.67411C12.9241 5.36778 13.494 4.91843 13.9431 4.3599Z" fill="white"/>
<path d="M37.36 21.6101H31.8902L30.5766 25.4888H28.2598L33.4407 11.1387H35.8478L41.0288 25.4888H38.6725L37.36 21.6101ZM32.4567 19.8203H36.7925L34.6551 13.5255H34.5952L32.4567 19.8203Z" fill="white"/>
<path d="M52.2186 20.2572C52.2186 23.5085 50.4784 25.5973 47.8524 25.5973C47.1872 25.6321 46.5256 25.4789 45.9434 25.1552C45.3612 24.8314 44.882 24.3503 44.5605 23.7669H44.5108V28.949H42.3633V15.0255H44.442V16.7656H44.4815C44.8177 16.185 45.3051 15.7063 45.8917 15.3806C46.4783 15.0549 47.1423 14.8944 47.8129 14.916C50.4682 14.916 52.2186 17.015 52.2186 20.2572ZM50.0112 20.2572C50.0112 18.139 48.9165 16.7464 47.2464 16.7464C45.6055 16.7464 44.5018 18.1684 44.5018 20.2572C44.5018 22.3653 45.6055 23.777 47.2464 23.777C48.9166 23.777 50.0112 22.3946 50.0112 20.2572Z" fill="white"/>
<path d="M63.7342 20.2572C63.7342 23.5084 61.994 25.5973 59.368 25.5973C58.7028 25.6321 58.0412 25.4789 57.459 25.1551C56.8768 24.8314 56.3976 24.3503 56.0761 23.7668H56.0265V28.949H53.8789V15.0255H55.9576V16.7656H55.9971C56.3333 16.185 56.8207 15.7063 57.4073 15.3806C57.9939 15.0549 58.6578 14.8944 59.3285 14.916C61.9839 14.916 63.7342 17.015 63.7342 20.2572ZM61.5268 20.2572C61.5268 18.139 60.4322 16.7464 58.762 16.7464C57.1211 16.7464 56.0175 18.1683 56.0175 20.2572C56.0175 22.3653 57.1211 23.777 58.762 23.777C60.4322 23.777 61.5268 22.3946 61.5268 20.2572H61.5268Z" fill="white"/>
<path d="M71.3429 21.4915C71.502 22.9145 72.8845 23.8489 74.7736 23.8489C76.5837 23.8489 77.886 22.9145 77.886 21.6314C77.886 20.5175 77.1005 19.8506 75.2408 19.3935L73.381 18.9455C70.7459 18.309 69.5226 17.0767 69.5226 15.077C69.5226 12.6011 71.6803 10.9004 74.7442 10.9004C77.7765 10.9004 79.8552 12.6011 79.9252 15.077H77.7573C77.6275 13.6449 76.4437 12.7805 74.7137 12.7805C72.9837 12.7805 71.7999 13.6551 71.7999 14.928C71.7999 15.9426 72.556 16.5395 74.4056 16.9966L75.9867 17.3848C78.9309 18.081 80.1543 19.2638 80.1543 21.3627C80.1543 24.0475 78.0157 25.7289 74.6144 25.7289C71.432 25.7289 69.2833 24.087 69.1445 21.4914L71.3429 21.4915Z" fill="white"/>
<path d="M84.7903 12.5508V15.0267H86.7798V16.7274H84.7903V22.4952C84.7903 23.3912 85.1886 23.8088 86.0632 23.8088C86.2994 23.8047 86.5352 23.7881 86.7697 23.7591V25.4496C86.3764 25.5231 85.9768 25.5563 85.5768 25.5489C83.4586 25.5489 82.6325 24.7533 82.6325 22.7242V16.7274H81.1113V15.0267H82.6325V12.5508H84.7903Z" fill="white"/>
<path d="M87.9316 20.2608C87.9316 16.9689 89.8704 14.9004 92.8937 14.9004C95.9271 14.9004 97.8569 16.9689 97.8569 20.2608C97.8569 23.5617 95.9373 25.6212 92.8937 25.6212C89.8512 25.6212 87.9316 23.5617 87.9316 20.2608ZM95.6687 20.2608C95.6687 18.0027 94.6338 16.6699 92.8937 16.6699C91.1535 16.6699 90.1198 18.0128 90.1198 20.2608C90.1198 22.528 91.1535 23.8506 92.8937 23.8506C94.6338 23.8506 95.6686 22.528 95.6686 20.2608H95.6687Z" fill="white"/>
<path d="M99.627 15.0254H101.675V16.8061H101.725C101.863 16.25 102.189 15.7584 102.648 15.4142C103.106 15.07 103.669 14.894 104.241 14.9159C104.489 14.915 104.736 14.9419 104.977 14.996V17.0048C104.665 16.9093 104.339 16.8654 104.012 16.875C103.7 16.8623 103.389 16.9173 103.101 17.0362C102.812 17.1551 102.552 17.3351 102.34 17.5638C102.127 17.7924 101.967 18.0644 101.869 18.361C101.771 18.6576 101.739 18.9718 101.774 19.2821V25.4877H99.627L99.627 15.0254Z" fill="white"/>
<path d="M114.879 22.4185C114.59 24.3178 112.741 25.6212 110.374 25.6212C107.331 25.6212 105.441 23.582 105.441 20.3105C105.441 17.0288 107.341 14.9004 110.284 14.9004C113.178 14.9004 114.999 16.8888 114.999 20.0611V20.7968H107.609V20.9266C107.575 21.3117 107.623 21.6996 107.751 22.0645C107.878 22.4295 108.082 22.7632 108.348 23.0435C108.614 23.3238 108.937 23.5442 109.295 23.6902C109.653 23.8362 110.037 23.9043 110.424 23.8901C110.931 23.9376 111.441 23.8201 111.876 23.5549C112.311 23.2898 112.649 22.8912 112.84 22.4185L114.879 22.4185ZM107.619 19.2959H112.85C112.869 18.9497 112.817 18.6033 112.696 18.2783C112.575 17.9533 112.388 17.6569 112.147 17.4075C111.906 17.1582 111.616 16.9614 111.296 16.8294C110.975 16.6974 110.63 16.6331 110.284 16.6405C109.934 16.6385 109.587 16.7057 109.264 16.8382C108.94 16.9708 108.646 17.1662 108.398 17.4131C108.151 17.66 107.954 17.9534 107.821 18.2766C107.687 18.5998 107.619 18.9462 107.619 19.2959V19.2959Z" fill="white"/>
<path d="M32.1879 0.339856C32.6381 0.307546 33.0899 0.375564 33.5107 0.539003C33.9314 0.702442 34.3107 0.957227 34.6211 1.28498C34.9314 1.61274 35.1652 2.00529 35.3055 2.43433C35.4458 2.86336 35.4891 3.31819 35.4323 3.766C35.4323 5.96884 34.2418 7.23508 32.1879 7.23508H29.6973V0.339856H32.1879ZM30.7682 6.25995H32.0683C32.39 6.27918 32.7119 6.22643 33.0107 6.10554C33.3095 5.98465 33.5775 5.79866 33.7953 5.56111C34.0132 5.32356 34.1753 5.04043 34.2699 4.73233C34.3645 4.42422 34.3892 4.09891 34.3422 3.78005C34.3858 3.46246 34.3586 3.13915 34.2625 2.83331C34.1665 2.52747 34.0039 2.24665 33.7866 2.01099C33.5693 1.77533 33.3025 1.59066 33.0054 1.47021C32.7084 1.34975 32.3883 1.2965 32.0683 1.31426H30.7682V6.25995Z" fill="white"/>
<path d="M36.6425 4.63349C36.6098 4.29153 36.6489 3.94651 36.7573 3.62055C36.8658 3.2946 37.0411 2.9949 37.2722 2.74069C37.5032 2.48648 37.7849 2.28337 38.099 2.14438C38.4132 2.00539 38.7529 1.93359 39.0964 1.93359C39.4399 1.93359 39.7797 2.00539 40.0938 2.14438C40.408 2.28337 40.6896 2.48648 40.9206 2.74069C41.1517 2.9949 41.3271 3.2946 41.4355 3.62055C41.5439 3.94651 41.5831 4.29153 41.5503 4.63349C41.5837 4.97581 41.545 5.32131 41.4369 5.64779C41.3287 5.97427 41.1535 6.27452 40.9223 6.52922C40.6912 6.78393 40.4094 6.98747 40.0949 7.12676C39.7805 7.26605 39.4403 7.33801 39.0964 7.33801C38.7525 7.33801 38.4123 7.26605 38.0979 7.12676C37.7834 6.98747 37.5016 6.78393 37.2705 6.52922C37.0394 6.27452 36.8641 5.97427 36.7559 5.64779C36.6478 5.32131 36.6091 4.97581 36.6425 4.63349ZM40.4941 4.63349C40.4941 3.50555 39.9873 2.84594 39.0981 2.84594C38.2054 2.84594 37.7033 3.50556 37.7033 4.63351C37.7033 5.77048 38.2055 6.42501 39.0981 6.42501C39.9874 6.425 40.4941 5.76595 40.4941 4.63349H40.4941Z" fill="white"/>
<path d="M48.0735 7.23479H47.0082L45.9327 3.40238H45.8515L44.7805 7.23479H43.7253L42.291 2.03125H43.3326L44.2648 6.00186H44.3415L45.4113 2.03125H46.3965L47.4664 6.00186H47.5476L48.4752 2.03125H49.5022L48.0735 7.23479Z" fill="white"/>
<path d="M50.709 2.03135H51.6976V2.85798H51.7743C51.9045 2.56108 52.124 2.3122 52.4024 2.14602C52.6807 1.97984 53.004 1.90464 53.3271 1.9309C53.5803 1.91187 53.8345 1.95004 54.071 2.0426C54.3074 2.13516 54.52 2.27973 54.693 2.4656C54.8659 2.65147 54.9949 2.87387 55.0702 3.11634C55.1456 3.35881 55.1654 3.61512 55.1282 3.86629V7.23484H54.1013V4.12417C54.1013 3.28795 53.7379 2.87209 52.9784 2.87209C52.8065 2.86408 52.6349 2.89334 52.4754 2.95786C52.3158 3.02237 52.1721 3.12062 52.0541 3.24587C51.9361 3.37112 51.8466 3.5204 51.7916 3.68349C51.7367 3.84658 51.7177 4.01962 51.7359 4.19074V7.2349H50.709L50.709 2.03135Z" fill="white"/>
<path d="M56.7637 0H57.7906V7.23485H56.7637V0Z" fill="white"/>
<path d="M59.2186 4.63164C59.1859 4.28965 59.2251 3.94461 59.3335 3.61864C59.442 3.29267 59.6174 2.99297 59.8485 2.73875C60.0795 2.48454 60.3612 2.28142 60.6754 2.14243C60.9895 2.00344 61.3293 1.93164 61.6728 1.93164C62.0164 1.93164 62.3561 2.00344 62.6703 2.14243C62.9845 2.28142 63.2661 2.48454 63.4972 2.73875C63.7283 2.99297 63.9037 3.29267 64.0121 3.61864C64.1206 3.94461 64.1597 4.28965 64.127 4.63164C64.1603 4.97396 64.1216 5.31947 64.0135 5.64595C63.9053 5.97243 63.73 6.27267 63.4988 6.52737C63.2677 6.78207 62.9859 6.9856 62.6714 7.12488C62.3569 7.26417 62.0168 7.33612 61.6728 7.33612C61.3289 7.33612 60.9888 7.26417 60.6743 7.12488C60.3598 6.9856 60.0779 6.78207 59.8468 6.52737C59.6157 6.27267 59.4404 5.97243 59.3322 5.64595C59.224 5.31947 59.1853 4.97396 59.2186 4.63164ZM63.0702 4.63164C63.0702 3.5037 62.5635 2.84409 61.6742 2.84409C60.7816 2.84409 60.2794 3.5037 60.2794 4.63165C60.2794 5.76862 60.7816 6.42315 61.6742 6.42315C62.5635 6.42314 63.0702 5.76409 63.0702 4.63164H63.0702Z" fill="white"/>
<path d="M65.209 5.766C65.209 4.82933 65.9064 4.28935 67.1444 4.21261L68.5539 4.13136V3.68221C68.5539 3.13263 68.1905 2.82229 67.4886 2.82229C66.9153 2.82229 66.5181 3.03276 66.4041 3.40065H65.4099C65.5148 2.50687 66.3556 1.93359 67.536 1.93359C68.8405 1.93359 69.5763 2.58304 69.5763 3.68221V7.23758H68.5877V6.50631H68.5065C68.3416 6.76862 68.11 6.98246 67.8354 7.12599C67.5608 7.26953 67.253 7.33762 66.9435 7.32331C66.7251 7.34603 66.5043 7.32273 66.2954 7.25489C66.0865 7.18706 65.8941 7.07621 65.7307 6.92949C65.5673 6.78276 65.4364 6.60342 65.3466 6.40302C65.2567 6.20263 65.2098 5.98562 65.209 5.766ZM68.5539 5.32136V4.88633L67.2832 4.96758C66.5666 5.01554 66.2416 5.25929 66.2416 5.71803C66.2416 6.18636 66.6478 6.45889 67.2065 6.45889C67.3702 6.47546 67.5355 6.45893 67.6927 6.4103C67.8498 6.36166 67.9956 6.2819 68.1213 6.17577C68.247 6.06964 68.3501 5.9393 68.4244 5.79252C68.4987 5.64574 68.5428 5.48551 68.5539 5.32136Z" fill="white"/>
<path d="M70.9258 4.63085C70.9258 2.98661 71.771 1.945 73.0858 1.945C73.411 1.93001 73.7337 2.00791 74.0163 2.16957C74.2988 2.33123 74.5296 2.56998 74.6815 2.85792H74.7582V0H75.7851V7.23486H74.8011V6.41273H74.7198C74.5562 6.69873 74.3174 6.93451 74.0294 7.09454C73.7414 7.25457 73.415 7.33275 73.0858 7.32061C71.762 7.32067 70.9258 6.27903 70.9258 4.63085ZM71.9866 4.63085C71.9866 5.73453 72.5069 6.39866 73.3769 6.39866C74.2425 6.39866 74.7774 5.72495 74.7774 4.63537C74.7774 3.55087 74.2369 2.86755 73.3769 2.86755C72.5125 2.86755 71.9866 3.53619 71.9866 4.63085H71.9866Z" fill="white"/>
<path d="M80.035 4.63349C80.0023 4.29153 80.0414 3.94651 80.1499 3.62055C80.2583 3.2946 80.4337 2.9949 80.6648 2.74069C80.8958 2.48648 81.1774 2.28337 81.4916 2.14438C81.8057 2.00539 82.1455 1.93359 82.489 1.93359C82.8325 1.93359 83.1722 2.00539 83.4864 2.14438C83.8005 2.28337 84.0822 2.48648 84.3132 2.74069C84.5443 2.9949 84.7196 3.2946 84.8281 3.62055C84.9365 3.94651 84.9756 4.29153 84.9429 4.63349C84.9763 4.97581 84.9376 5.32131 84.8295 5.64779C84.7213 5.97427 84.546 6.27452 84.3149 6.52922C84.0838 6.78393 83.802 6.98747 83.4875 7.12676C83.173 7.26605 82.8329 7.33801 82.489 7.33801C82.1451 7.33801 81.8049 7.26605 81.4905 7.12676C81.176 6.98747 80.8942 6.78393 80.663 6.52922C80.4319 6.27452 80.2567 5.97427 80.1485 5.64779C80.0404 5.32131 80.0017 4.97581 80.035 4.63349ZM83.8866 4.63349C83.8866 3.50555 83.3799 2.84594 82.4907 2.84594C81.598 2.84594 81.0959 3.50556 81.0959 4.63351C81.0959 5.77048 81.5981 6.42501 82.4907 6.42501C83.3799 6.425 83.8866 5.76595 83.8866 4.63349Z" fill="white"/>
<path d="M86.3203 2.03135H87.3089V2.85798H87.3856C87.5158 2.56108 87.7354 2.3122 88.0137 2.14602C88.2921 1.97984 88.6153 1.90464 88.9385 1.9309C89.1916 1.91187 89.4459 1.95004 89.6823 2.0426C89.9187 2.13516 90.1313 2.27973 90.3043 2.4656C90.4773 2.65147 90.6062 2.87387 90.6815 3.11634C90.7569 3.35881 90.7767 3.61512 90.7395 3.86629V7.23484H89.7126V4.12417C89.7126 3.28795 89.3492 2.87209 88.5897 2.87209C88.4178 2.86408 88.2462 2.89334 88.0867 2.95786C87.9272 3.02237 87.7835 3.12062 87.6654 3.24587C87.5474 3.37112 87.4579 3.5204 87.403 3.68349C87.348 3.84658 87.329 4.01962 87.3473 4.19074V7.2349H86.3203V2.03135Z" fill="white"/>
<path d="M96.5416 0.734375V2.0536H97.669V2.9186H96.5416V5.59429C96.5416 6.13936 96.7662 6.37804 97.2774 6.37804C97.4083 6.37762 97.5391 6.36971 97.669 6.35434V7.20974C97.4846 7.24273 97.2978 7.26029 97.1104 7.26222C95.9684 7.26222 95.5136 6.86046 95.5136 5.85723V2.91856H94.6875V2.05355H95.5136V0.734375H96.5416Z" fill="white"/>
<path d="M99.0703 0H100.088V2.86754H100.169C100.306 2.56787 100.532 2.31758 100.816 2.15078C101.099 1.98397 101.428 1.90876 101.756 1.93539C102.008 1.92169 102.26 1.96374 102.494 2.05855C102.727 2.15335 102.937 2.29858 103.108 2.48387C103.28 2.66915 103.408 2.88993 103.484 3.13045C103.56 3.37097 103.582 3.6253 103.548 3.8753V7.23487H102.52V4.12864C102.52 3.29749 102.133 2.87656 101.407 2.87656C101.231 2.86208 101.053 2.88634 100.887 2.94765C100.721 3.00896 100.57 3.10583 100.446 3.23149C100.321 3.35714 100.225 3.50855 100.165 3.67511C100.105 3.84168 100.082 4.01938 100.097 4.19578V7.23484H99.0704L99.0703 0Z" fill="white"/>
<path d="M109.538 5.83072C109.399 6.30629 109.096 6.71766 108.684 6.99286C108.272 7.26807 107.776 7.38958 107.283 7.33614C106.941 7.34519 106.6 7.27953 106.285 7.14371C105.97 7.0079 105.688 6.80518 105.46 6.54964C105.231 6.29409 105.061 5.99184 104.961 5.66386C104.86 5.33588 104.833 4.99002 104.88 4.6503C104.834 4.30954 104.862 3.96294 104.962 3.63397C105.062 3.30501 105.231 3.00135 105.459 2.74357C105.686 2.48579 105.967 2.2799 106.281 2.13983C106.595 1.99977 106.935 1.9288 107.279 1.93173C108.727 1.93173 109.6 2.92091 109.6 4.55492V4.91326H105.926V4.97081C105.91 5.16176 105.934 5.35397 105.996 5.53511C106.059 5.71625 106.158 5.88232 106.289 6.02267C106.419 6.16302 106.578 6.27456 106.754 6.35014C106.93 6.42571 107.12 6.46365 107.312 6.46152C107.557 6.49101 107.806 6.44678 108.027 6.33444C108.247 6.22211 108.429 6.04676 108.55 5.83068L109.538 5.83072ZM105.926 4.15376H108.554C108.567 3.97911 108.543 3.8037 108.484 3.63877C108.425 3.47385 108.333 3.32307 108.212 3.19612C108.091 3.06917 107.946 2.96886 107.784 2.90163C107.622 2.8344 107.448 2.80174 107.273 2.80576C107.096 2.80353 106.919 2.83687 106.755 2.90384C106.59 2.9708 106.441 3.07001 106.315 3.19564C106.19 3.32127 106.09 3.47077 106.024 3.63532C105.957 3.79987 105.923 3.97614 105.926 4.15376H105.926Z" fill="white"/>
</svg>
