<svg width="42" height="48" viewBox="0 0 42 48" fill="none" xmlns="http://www.w3.org/2000/svg">
<path d="M41.8176 46.4223L38.1694 11.681C38.0929 10.9537 37.4798 10.4015 36.7485 10.4015H29.8916V8.83812C29.8916 3.96496 25.9266 0 21.0535 0C16.18 0 12.215 3.96496 12.215 8.83812V10.4015H5.35809C4.62677 10.4015 4.01373 10.9537 3.93719 11.681L0.289006 46.4223C0.246892 46.8247 0.377629 47.2265 0.648258 47.5275C0.919254 47.8282 1.30524 47.9999 1.7099 47.9999H40.3963C40.8014 47.9999 41.1874 47.8282 41.458 47.5275C41.7294 47.2265 41.8597 46.8247 41.8176 46.4223ZM15.0722 8.83812C15.0722 5.54039 17.7554 2.85717 21.0535 2.85717C24.3512 2.85717 27.0344 5.54039 27.0344 8.83812V10.4015H15.0722V8.83812ZM3.29632 45.1427L6.64458 13.2586H12.215V16.4069C12.215 17.1958 12.8548 17.8355 13.6436 17.8355C14.4324 17.8355 15.0722 17.1958 15.0722 16.4069V13.2586H27.0344V16.4069C27.0344 17.1958 27.6742 17.8355 28.463 17.8355C29.2518 17.8355 29.8916 17.1958 29.8916 16.4069V13.2586H35.462L38.8103 45.1427H3.29632Z" fill="black"/>
</svg>
