<svg width="48" height="48" viewBox="0 0 48 48" fill="none" xmlns="http://www.w3.org/2000/svg">
<path d="M32.5513 28.2397L25.8588 23.2203V12.9958C25.8588 11.9677 25.0278 11.1367 23.9997 11.1367C22.9716 11.1367 22.1406 11.9677 22.1406 12.9958V24.15C22.1406 24.7355 22.4158 25.2877 22.8843 25.6372L30.3203 31.2143C30.6549 31.4653 31.0454 31.5861 31.4339 31.5861C32.0009 31.5861 32.5586 31.3314 32.923 30.8406C33.5404 30.0207 33.373 28.8551 32.5513 28.2397Z" fill="black"/>
<path d="M24 0C10.7656 0 0 10.7656 0 24C0 37.2344 10.7656 48 24 48C37.2344 48 48 37.2344 48 24C48 10.7656 37.2344 0 24 0ZM24 44.282C12.818 44.282 3.71803 35.182 3.71803 24C3.71803 12.818 12.818 3.71803 24 3.71803C35.1839 3.71803 44.282 12.818 44.282 24C44.282 35.182 35.182 44.282 24 44.282Z" fill="black"/>
</svg>
