<svg width="38" height="48" viewBox="0 0 38 48" fill="none" xmlns="http://www.w3.org/2000/svg">
<path d="M28.2119 48.0007H3.46188C2.73483 48.0002 2.03768 47.7113 1.5234 47.1974C1.00913 46.6835 0.719743 45.9865 0.71875 45.2595V9.22758C0.719742 8.50086 1.00887 7.80419 1.52274 7.29032C2.03661 6.77645 2.73328 6.48732 3.46 6.48633H24.1394C24.5076 6.48711 24.872 6.56169 25.2109 6.70564C25.5499 6.84959 25.8565 7.06 26.1128 7.32445L30.1844 11.5432C30.6787 12.0533 30.9545 12.7361 30.9531 13.4463V45.2595C30.9521 45.9862 30.663 46.6828 30.1491 47.1967C29.6353 47.7106 28.9386 47.9997 28.2119 48.0007ZM3.53125 45.1882H28.1406V13.4773L24.1094 9.29883H3.53125V45.1882Z" fill="black"/>
<path d="M34.54 41.5144H29.5469C29.1739 41.5144 28.8162 41.3662 28.5525 41.1025C28.2888 40.8388 28.1406 40.4811 28.1406 40.1081C28.1406 39.7352 28.2888 39.3775 28.5525 39.1138C28.8162 38.85 29.1739 38.7019 29.5469 38.7019H34.4688V6.99094L30.4375 2.8125H9.85938V7.89188C9.85938 8.26484 9.71122 8.62252 9.44749 8.88624C9.18377 9.14997 8.82609 9.29813 8.45313 9.29813C8.08016 9.29813 7.72248 9.14997 7.45876 8.88624C7.19503 8.62252 7.04688 8.26484 7.04688 7.89188V2.74125C7.04787 2.01453 7.33699 1.31786 7.85086 0.803989C8.36473 0.29012 9.06141 0.000992111 9.78813 0L30.4675 0C30.8358 0.000786845 31.2001 0.0753584 31.5391 0.219311C31.878 0.363263 32.1847 0.573676 32.4409 0.838125L36.5125 5.0625C37.0068 5.57256 37.2826 6.25535 37.2813 6.96563V38.7731C37.2803 39.4998 36.9911 40.1965 36.4773 40.7104C35.9634 41.2243 35.2667 41.5134 34.54 41.5144Z" fill="black"/>
</svg>
