<svg width="20" height="20" viewBox="0 0 20 20" fill="none" xmlns="http://www.w3.org/2000/svg">
<rect width="20" height="20" rx="3" fill="#B9F348"/>
<path d="M9.7457 7.10563C9.15866 7.10563 8.6674 7.30646 8.27191 7.70812C7.88261 8.10978 7.66325 8.62267 7.61381 9.24679H11.8312C11.8003 8.61031 11.5933 8.09433 11.2102 7.69885C10.8333 7.30337 10.3451 7.10563 9.7457 7.10563ZM11.8683 12.2129H14.3524C14.2041 13.1892 13.7159 13.9771 12.8879 14.5765C12.0661 15.1697 11.0434 15.4663 9.81985 15.4663C8.29354 15.4663 7.09474 15.0091 6.22345 14.0945C5.35834 13.18 4.92578 11.9255 4.92578 10.3313C4.92578 8.74317 5.35834 7.4764 6.22345 6.53095C7.08856 5.57933 8.25338 5.10352 9.71789 5.10352C11.1577 5.10352 12.304 5.55461 13.1567 6.4568C14.0095 7.35899 14.4358 8.56706 14.4358 10.081V10.906H7.586V11.0728C7.586 11.7834 7.79301 12.3612 8.20703 12.8061C8.62723 13.2448 9.18028 13.4642 9.86619 13.4642C10.3605 13.4642 10.7869 13.353 11.1453 13.1305C11.5037 12.9019 11.7447 12.596 11.8683 12.2129Z" fill="#262626"/>
</svg>
