<svg width="106" height="38" viewBox="0 0 106 38" fill="none" xmlns="http://www.w3.org/2000/svg">
<path d="M102.147 0H3.85272C1.72492 0 0 1.80784 0 4.03792V33.9621C0 36.1922 1.72492 38 3.85272 38H102.147C104.275 38 106 36.1922 106 33.9621V4.03792C106 1.80784 104.275 0 102.147 0Z" fill="#ABD037"/>
<path d="M23.6348 28.209L25.3792 26.0579C27.9671 28.5056 30.451 29.7295 33.8932 29.7295C37.2277 29.7295 39.4244 27.8749 39.4244 25.3146V25.2395C39.4244 22.8294 38.186 21.4554 32.9635 20.3066C27.2528 19.0077 24.6254 17.078 24.6254 12.7983V12.7232C24.6254 8.65376 28.0676 5.65046 32.7841 5.65046C35.976 5.55179 39.0905 6.68798 41.5313 8.84147L39.8982 11.094C37.583 9.13805 35.2679 8.27835 32.7159 8.27835C29.4854 8.27835 27.4287 10.1329 27.4287 12.4717V12.543C27.4287 14.9945 28.7065 16.3648 34.1695 17.5924C39.7043 18.8537 42.2564 20.9711 42.2564 24.9354V25.0105C42.2564 29.4629 38.7101 32.3574 33.7783 32.3574C29.8408 32.3649 26.6139 30.9909 23.6348 28.209Z" fill="white"/>
<path d="M46.5547 5.64453H49.4196V32.3574H46.5547V5.64453Z" fill="white"/>
<path d="M54.791 5.64453H57.6151L66.6122 19.8193L75.6092 5.64453H78.4262V32.3574H75.6378V10.5847L66.6443 24.4929H66.5015L57.5044 10.6035V32.3574H54.791V5.64453Z" fill="white"/>
<path d="M94.5424 31.9795V29.204C94.5312 28.6909 94.5862 28.1785 94.7057 27.6804C94.8119 27.2733 95.0663 26.9246 95.4158 26.7075C95.7784 26.465 96.2017 26.3374 96.6335 26.3403C96.9426 26.3195 97.2522 26.3729 97.538 26.4965C97.8238 26.62 98.078 26.8104 98.2808 27.0526C98.6907 27.6537 98.8887 28.382 98.8417 29.1159V30.9882H101.703V31.9795H94.5424ZM97.9897 30.9993V29.1122C98.0285 28.6339 97.9028 28.1567 97.6347 27.7648C97.5089 27.627 97.3552 27.5196 97.1845 27.4504C97.0139 27.3812 96.8306 27.352 96.6477 27.3646C96.378 27.3598 96.1127 27.4364 95.8844 27.5849C95.6812 27.7124 95.5316 27.9142 95.4655 28.1503C95.398 28.4734 95.3682 28.8038 95.3767 29.1342V30.9699L97.9897 30.9993Z" fill="#00A6CE"/>
<path d="M101.703 18.8125V19.9502L99.5265 20.8604V24.0459L101.703 24.8916V25.961L94.541 23.022V21.9336L101.703 18.8125ZM98.7666 21.1372L95.4429 22.4873L98.7666 23.7691V21.1372Z" fill="#00A6CE"/>
<path d="M102.058 15.2174C102.058 16.2803 101.829 17.0761 101.37 17.605C101.145 17.8625 100.872 18.0692 100.567 18.2122C100.262 18.3551 99.932 18.4312 99.5974 18.4358V17.4703C99.8373 17.4622 100.072 17.3945 100.281 17.2727C100.491 17.1509 100.669 16.9787 100.801 16.7705C101.067 16.3209 101.202 15.8011 101.19 15.2736C101.211 14.7979 101.096 14.3264 100.859 13.9189C100.764 13.7593 100.63 13.6281 100.472 13.5382C100.313 13.4483 100.135 13.4028 99.9541 13.4062C99.7747 13.397 99.5966 13.4423 99.4417 13.5367C99.2868 13.6311 99.1618 13.7705 99.0821 13.9376C98.8311 14.5209 98.6507 15.1343 98.5452 15.7638C98.45 16.4409 98.1964 17.0834 97.8065 17.635C97.6515 17.8205 97.4584 17.9676 97.2413 18.0654C97.0243 18.1632 96.789 18.2092 96.5526 18.2001C96.2725 18.2021 95.996 18.1354 95.7455 18.0053C95.495 17.8752 95.2777 17.6855 95.1112 17.4516C94.7126 16.8899 94.5128 16.2026 94.5455 15.5056C94.5079 14.7697 94.7069 14.0417 95.1112 13.4361C95.2998 13.1782 95.5434 12.9692 95.8229 12.8257C96.1024 12.6822 96.4101 12.608 96.7219 12.6091V13.5821C95.8427 13.6794 95.4031 14.3031 95.4031 15.4532C95.3778 15.9053 95.4832 16.3549 95.7058 16.7443C95.7899 16.8867 95.9082 17.0039 96.049 17.0846C96.1899 17.1653 96.3485 17.2066 96.5093 17.2046C96.6452 17.2116 96.7805 17.1805 96.9009 17.1147C97.0213 17.0489 97.1225 16.9507 97.1939 16.8304C97.4089 16.3993 97.5573 15.9359 97.6335 15.4569C97.7429 14.9147 97.8837 14.3799 98.0551 13.8552C98.1909 13.4686 98.4132 13.121 98.7037 12.8411C99.0291 12.5473 99.4514 12.3957 99.882 12.4182C100.182 12.4141 100.478 12.4823 100.748 12.6173C101.019 12.7524 101.255 12.9507 101.439 13.1966C101.87 13.7725 102.089 14.4888 102.058 15.2174Z" fill="#00A6CE"/>
<path d="M102.057 8.08493C102.057 9.14248 101.827 9.93441 101.369 10.4607C101.145 10.7184 100.872 10.925 100.567 11.0673C100.262 11.2097 99.9309 11.2846 99.596 11.2874V10.3192C99.836 10.3096 100.07 10.241 100.279 10.1193C100.489 9.99757 100.667 9.82613 100.799 9.61913C101.066 9.17188 101.201 8.65454 101.189 8.12962C101.21 7.65739 101.095 7.18927 100.857 6.78533C100.763 6.62601 100.629 6.49507 100.471 6.40556C100.312 6.31604 100.133 6.27109 99.9527 6.27517C99.7738 6.26568 99.596 6.31029 99.4411 6.40353C99.2863 6.49678 99.1611 6.63462 99.0808 6.80022C98.8298 7.38068 98.6495 7.99108 98.544 8.61743C98.4496 9.29139 98.196 9.9309 97.8054 10.4793C97.6509 10.6646 97.4578 10.8114 97.2407 10.9088C97.0236 11.0062 96.788 11.0516 96.5515 11.0416C96.2719 11.0416 95.996 10.9743 95.7459 10.845C95.4957 10.7158 95.2782 10.5281 95.1103 10.2969C94.7123 9.73623 94.5126 9.05134 94.5447 8.35677C94.5108 7.62617 94.7123 6.90459 95.1176 6.30496C95.3049 6.04864 95.5472 5.84062 95.8254 5.6972C96.1035 5.55378 96.41 5.47886 96.7209 5.47828V6.44647C95.8418 6.54328 95.4022 7.16391 95.4022 8.30836C95.3816 8.75233 95.4881 9.19271 95.7084 9.57444C95.7926 9.7161 95.9109 9.83277 96.0517 9.91305C96.1925 9.99334 96.3511 10.0345 96.5119 10.0325C96.6478 10.0394 96.783 10.0085 96.9034 9.943C97.0239 9.8775 97.125 9.7798 97.1965 9.66009C97.4114 9.23118 97.5597 8.77 97.636 8.29346C97.7454 7.75392 97.8862 7.2217 98.0576 6.69968C98.1941 6.31533 98.4162 5.96961 98.7061 5.69054C99.0315 5.3982 99.4537 5.2474 99.8843 5.26975C100.184 5.26654 100.48 5.33475 100.75 5.46908C101.02 5.60341 101.256 5.80025 101.441 6.0443C101.877 6.62572 102.096 7.35026 102.057 8.08493Z" fill="#00A6CE"/>
<path d="M13.244 29.5522C15.6912 29.5522 17.4107 28.4998 18.8555 26.9023L20.5108 28.4622C18.7271 30.5671 16.551 31.9804 13.1762 31.9804C8.28882 31.9804 4.29688 28.0262 4.29688 22.2076C4.29688 16.7687 7.91067 12.416 12.8337 12.416C18.0992 12.416 21.128 16.8401 21.128 22.3542C21.128 22.606 21.128 22.8954 21.0958 23.3315H6.97957C7.35772 27.2519 10.1118 29.5522 13.244 29.5522ZM18.4595 21.0649C18.1349 17.6557 16.2763 14.754 12.7517 14.754C9.69081 14.754 7.34702 17.4377 6.96887 21.0649H18.4595Z" fill="#00A6CE"/>
<path d="M87.1034 26.6933H85.8366C85.8366 26.6933 85.8366 26.6933 85.858 26.6933L85.9761 26.2196L87.1249 25.2907C87.1249 25.2198 87.1535 25.1526 87.1643 25.0817C87.0943 24.7129 87.0548 24.3385 87.0462 23.9626C87.0462 23.4515 87.0462 22.5375 87.0462 21.6049V21.2318L82.3652 22.6905L82.4619 22.0488L87.0426 19.0233V18.5458C87.0426 17.6132 87.0426 16.6992 87.0426 16.1844C87.0426 15.4047 87.2645 13.9237 87.7333 13.9199C88.2021 13.9162 88.4275 15.4122 88.4311 16.1844V19.0084L93.0119 22.0339L93.1085 22.6793L88.4275 21.2281V21.6011C88.4275 22.5301 88.4275 23.4478 88.4275 23.9626C88.4189 24.3469 88.3806 24.7299 88.313 25.1079V25.2757L89.4904 26.227L89.6121 26.712L88.2307 26.671L87.1034 26.6933Z" fill="white"/>
<path d="M87.737 37.2482C87.642 37.2482 87.551 37.2088 87.4838 37.1386C87.4166 37.0684 87.3789 36.9732 87.3789 36.8739V36.6867C87.3789 36.5875 87.4166 36.4923 87.4838 36.4221C87.551 36.3519 87.642 36.3124 87.737 36.3124C87.832 36.3124 87.9231 36.3519 87.9902 36.4221C88.0574 36.4923 88.0951 36.5875 88.0951 36.6867V36.8739C88.0951 36.9732 88.0574 37.0684 87.9902 37.1386C87.9231 37.2088 87.832 37.2482 87.737 37.2482ZM87.737 35.0023C87.642 35.0023 87.551 34.9628 87.4838 34.8926C87.4166 34.8224 87.3789 34.7272 87.3789 34.6279V34.4408C87.3789 34.3415 87.4166 34.2463 87.4838 34.1761C87.551 34.1059 87.642 34.0665 87.737 34.0665C87.832 34.0665 87.9231 34.1059 87.9902 34.1761C88.0574 34.2463 88.0951 34.3415 88.0951 34.4408V34.6279C88.0951 34.7272 88.0574 34.8224 87.9902 34.8926C87.9231 34.9628 87.832 35.0023 87.737 35.0023ZM87.737 32.7563C87.642 32.7563 87.551 32.7169 87.4838 32.6467C87.4166 32.5765 87.3789 32.4813 87.3789 32.382V32.1948C87.3789 32.0955 87.4166 32.0003 87.4838 31.9301C87.551 31.8599 87.642 31.8205 87.737 31.8205C87.832 31.8205 87.9231 31.8599 87.9902 31.9301C88.0574 32.0003 88.0951 32.0955 88.0951 32.1948V32.382C88.0951 32.4813 88.0574 32.5765 87.9902 32.6467C87.9231 32.7169 87.832 32.7563 87.737 32.7563ZM87.737 30.5103C87.642 30.5103 87.551 30.4709 87.4838 30.4007C87.4166 30.3305 87.3789 30.2353 87.3789 30.136V29.9488C87.3789 29.8496 87.4166 29.7544 87.4838 29.6842C87.551 29.614 87.642 29.5745 87.737 29.5745C87.832 29.5745 87.9231 29.614 87.9902 29.6842C88.0574 29.7544 88.0951 29.8496 88.0951 29.9488V30.136C88.0951 30.2353 88.0574 30.3305 87.9902 30.4007C87.9231 30.4709 87.832 30.5103 87.737 30.5103ZM87.737 28.2644C87.642 28.2644 87.551 28.2249 87.4838 28.1547C87.4166 28.0845 87.3789 27.9893 87.3789 27.89V27.7029C87.3789 27.6036 87.4166 27.5084 87.4838 27.4382C87.551 27.368 87.642 27.3286 87.737 27.3286C87.832 27.3286 87.9231 27.368 87.9902 27.4382C88.0574 27.5084 88.0951 27.6036 88.0951 27.7029V27.89C88.0951 27.9893 88.0574 28.0845 87.9902 28.1547C87.9231 28.2249 87.832 28.2644 87.737 28.2644ZM87.737 26.0184C87.642 26.0184 87.551 25.979 87.4838 25.9088C87.4166 25.8386 87.3789 25.7434 87.3789 25.6441V25.4569C87.3789 25.3576 87.4166 25.2624 87.4838 25.1922C87.551 25.122 87.642 25.0826 87.737 25.0826C87.832 25.0826 87.9231 25.122 87.9902 25.1922C88.0574 25.2624 88.0951 25.3576 88.0951 25.4569V25.6441C88.0951 25.7434 88.0574 25.8386 87.9902 25.9088C87.9231 25.979 87.832 26.0184 87.737 26.0184ZM87.737 23.7724C87.642 23.7724 87.551 23.733 87.4838 23.6628C87.4166 23.5926 87.3789 23.4974 87.3789 23.3981V23.2109C87.3789 23.1117 87.4166 23.0165 87.4838 22.9463C87.551 22.8761 87.642 22.8366 87.737 22.8366C87.832 22.8366 87.9231 22.8761 87.9902 22.9463C88.0574 23.0165 88.0951 23.1117 88.0951 23.2109V23.3981C88.0951 23.4974 88.0574 23.5926 87.9902 23.6628C87.9231 23.733 87.832 23.7724 87.737 23.7724ZM87.737 21.5265C87.642 21.5265 87.551 21.487 87.4838 21.4168C87.4166 21.3466 87.3789 21.2514 87.3789 21.1521V20.965C87.3789 20.8657 87.4166 20.7705 87.4838 20.7003C87.551 20.6301 87.642 20.5907 87.737 20.5907C87.832 20.5907 87.9231 20.6301 87.9902 20.7003C88.0574 20.7705 88.0951 20.8657 88.0951 20.965V21.1521C88.0951 21.2514 88.0574 21.3466 87.9902 21.4168C87.9231 21.487 87.832 21.5265 87.737 21.5265ZM87.737 19.2805C87.642 19.2805 87.551 19.2411 87.4838 19.1709C87.4166 19.1007 87.3789 19.0055 87.3789 18.9062V18.719C87.3789 18.6197 87.4166 18.5245 87.4838 18.4543C87.551 18.3841 87.642 18.3447 87.737 18.3447C87.832 18.3447 87.9231 18.3841 87.9902 18.4543C88.0574 18.5245 88.0951 18.6197 88.0951 18.719V18.9062C88.0951 19.0055 88.0574 19.1007 87.9902 19.1709C87.9231 19.2411 87.832 19.2805 87.737 19.2805ZM87.737 17.0345C87.642 17.0345 87.551 16.9951 87.4838 16.9249C87.4166 16.8547 87.3789 16.7595 87.3789 16.6602V16.473C87.3789 16.3738 87.4166 16.2786 87.4838 16.2084C87.551 16.1382 87.642 16.0987 87.737 16.0987C87.832 16.0987 87.9231 16.1382 87.9902 16.2084C88.0574 16.2786 88.0951 16.3738 88.0951 16.473V16.6602C88.0951 16.7595 88.0574 16.8547 87.9902 16.9249C87.9231 16.9951 87.832 17.0345 87.737 17.0345ZM87.737 14.7886C87.642 14.7886 87.551 14.7491 87.4838 14.6789C87.4166 14.6087 87.3789 14.5135 87.3789 14.4142V14.2271C87.3789 14.1278 87.4166 14.0326 87.4838 13.9624C87.551 13.8922 87.642 13.8528 87.737 13.8528C87.832 13.8528 87.9231 13.8922 87.9902 13.9624C88.0574 14.0326 88.0951 14.1278 88.0951 14.2271V14.4142C88.0951 14.5135 88.0574 14.6087 87.9902 14.6789C87.9231 14.7491 87.832 14.7886 87.737 14.7886ZM87.737 12.5426C87.642 12.5426 87.551 12.5032 87.4838 12.433C87.4166 12.3628 87.3789 12.2676 87.3789 12.1683V11.9811C87.3789 11.8818 87.4166 11.7866 87.4838 11.7164C87.551 11.6462 87.642 11.6068 87.737 11.6068C87.832 11.6068 87.9231 11.6462 87.9902 11.7164C88.0574 11.7866 88.0951 11.8818 88.0951 11.9811V12.1683C88.0951 12.2676 88.0574 12.3628 87.9902 12.433C87.9231 12.5032 87.832 12.5426 87.737 12.5426ZM87.737 10.2966C87.642 10.2966 87.551 10.2572 87.4838 10.187C87.4166 10.1168 87.3789 10.0216 87.3789 9.92231V9.73515C87.3789 9.63587 87.4166 9.54066 87.4838 9.47046C87.551 9.40026 87.642 9.36082 87.737 9.36082C87.832 9.36082 87.9231 9.40026 87.9902 9.47046C88.0574 9.54066 88.0951 9.63587 88.0951 9.73515V9.92231C88.0951 10.0216 88.0574 10.1168 87.9902 10.187C87.9231 10.2572 87.832 10.2966 87.737 10.2966ZM87.737 8.05067C87.642 8.05067 87.551 8.01123 87.4838 7.94103C87.4166 7.87083 87.3789 7.77562 87.3789 7.67634V7.48918C87.3789 7.3899 87.4166 7.29469 87.4838 7.22449C87.551 7.15429 87.642 7.11485 87.737 7.11485C87.832 7.11485 87.9231 7.15429 87.9902 7.22449C88.0574 7.29469 88.0951 7.3899 88.0951 7.48918V7.67634C88.0951 7.77562 88.0574 7.87083 87.9902 7.94103C87.9231 8.01123 87.832 8.05067 87.737 8.05067ZM87.737 5.80471C87.642 5.80471 87.551 5.76527 87.4838 5.69507C87.4166 5.62487 87.3789 5.52966 87.3789 5.43038V5.24321C87.3789 5.14394 87.4166 5.04872 87.4838 4.97852C87.551 4.90832 87.642 4.86889 87.737 4.86889C87.832 4.86889 87.9231 4.90832 87.9902 4.97852C88.0574 5.04872 88.0951 5.14394 88.0951 5.24321V5.43038C88.0951 5.47954 88.0859 5.52821 88.0679 5.57363C88.0499 5.61904 88.0235 5.66031 87.9902 5.69507C87.957 5.72983 87.9175 5.7574 87.8741 5.77621C87.8306 5.79502 87.784 5.80471 87.737 5.80471ZM87.737 3.55874C87.642 3.55874 87.551 3.5193 87.4838 3.4491C87.4166 3.3789 87.3789 3.28369 87.3789 3.18441V2.99725C87.3789 2.89797 87.4166 2.80276 87.4838 2.73256C87.551 2.66236 87.642 2.62292 87.737 2.62292C87.832 2.62292 87.9231 2.66236 87.9902 2.73256C88.0574 2.80276 88.0951 2.89797 88.0951 2.99725V3.18441C88.0951 3.23357 88.0859 3.28224 88.0679 3.32766C88.0499 3.37308 88.0235 3.41434 87.9902 3.4491C87.957 3.48386 87.9175 3.51143 87.8741 3.53025C87.8306 3.54906 87.784 3.55874 87.737 3.55874ZM87.737 1.31277C87.642 1.31277 87.551 1.27333 87.4838 1.20313C87.4166 1.13293 87.3789 1.03772 87.3789 0.938445V0.751281C87.3789 0.652003 87.4166 0.556791 87.4838 0.486591C87.551 0.416391 87.642 0.376953 87.737 0.376953C87.832 0.376953 87.9231 0.416391 87.9902 0.486591C88.0574 0.556791 88.0951 0.652003 88.0951 0.751281V0.938445C88.0951 0.987602 88.0859 1.03628 88.0679 1.08169C88.0499 1.12711 88.0235 1.16837 87.9902 1.20313C87.957 1.23789 87.9175 1.26547 87.8741 1.28428C87.8306 1.30309 87.784 1.31277 87.737 1.31277Z" fill="white"/>
</svg>
