<svg width="40" height="40" viewBox="0 0 40 40" fill="none" xmlns="http://www.w3.org/2000/svg">
<g clip-path="url(#clip0)">
<path d="M4.85862 6.77915L4.8422 6.80414V6.81217C2.31531 9.71265 0.674141 13.2774 0.11405 17.0832C-0.447865 20.9014 0.102128 24.8005 1.69828 28.3145C3.29442 31.8285 5.86918 34.8086 9.11474 36.8986C12.3603 38.9886 16.1393 40.1 20 40.1C23.8607 40.1 27.6397 38.9886 30.8853 36.8986C34.1308 34.8086 36.7056 31.8285 38.3017 28.3145C39.8979 24.8005 40.4479 20.9014 39.8859 17.0832C39.324 13.265 37.674 9.68943 35.1331 6.78384L35.1201 6.76902L35.1071 6.76253C35.0677 6.70675 35.0207 6.65678 34.9672 6.61414C33.0862 4.50354 30.7799 2.81428 28.1998 1.65716C25.6171 0.498838 22.8183 -0.1 19.9875 -0.1C17.1567 -0.1 14.3579 0.498838 11.7752 1.65716C9.19492 2.81434 6.88861 4.50372 5.00747 6.61447C4.9497 6.66138 4.89949 6.71692 4.85862 6.77915ZM31.5409 20.7226H38.623C38.4698 24.7887 36.9835 28.692 34.3929 31.8309C33.0164 31.0346 31.5593 30.3867 30.046 29.898C30.9909 26.9292 31.4946 23.8377 31.5409 20.7226ZM25.2659 37.8786C26.9923 36.32 28.4802 34.0478 29.567 31.2674C30.8993 31.696 32.1862 32.2548 33.4088 32.9357C31.1671 35.2616 28.3606 36.964 25.2659 37.8786ZM5.59326 31.833C3.00152 28.6937 1.51458 24.7896 1.36137 20.7226H8.44351C8.48948 23.8388 8.99314 26.9313 9.93836 29.9012C8.4257 30.3896 6.96917 31.0372 5.59326 31.833ZM1.36143 19.273C1.51756 15.1842 3.02171 11.2613 5.63995 8.11543C7.00876 8.90392 8.45675 9.54627 9.96001 10.0319C9.00084 13.0205 8.48979 16.1347 8.4435 19.273H1.36143ZM20.7172 11.5495C23.4055 11.5034 26.0782 11.1292 28.6758 10.4354C29.5793 13.2961 30.0603 16.2734 30.1034 19.273H20.7172V11.5495ZM20.7172 10.0998V1.4053C23.7588 1.80623 26.4436 4.71628 28.1704 9.06837C25.736 9.70763 23.2338 10.0539 20.7172 10.0998ZM19.2672 1.4053V10.0998C16.7505 10.0539 14.2484 9.70766 11.8139 9.06837C13.5408 4.71628 16.2256 1.80623 19.2672 1.4053ZM11.3087 10.4354C13.9063 11.1292 16.5789 11.5034 19.2672 11.5495V19.273H9.89334C9.93251 16.274 10.4093 13.2968 11.3087 10.4354ZM11.3087 29.4977C10.4161 26.6562 9.93943 23.7005 9.89358 20.7226H19.2672V28.3775C16.5786 28.4255 13.906 28.8016 11.3087 29.4977ZM19.2672 29.827V38.5902C16.2127 38.1859 13.5035 35.251 11.7884 30.8648C14.2308 30.2213 16.7417 29.8728 19.2672 29.827ZM20.7172 29.827C23.2427 29.8729 25.7535 30.2213 28.196 30.8648C26.4809 35.251 23.7717 38.1859 20.7172 38.5902V29.827ZM28.6757 29.4946C26.0783 28.7996 23.4056 28.4244 20.7172 28.3774V20.7226H30.0908C30.0446 23.6995 29.568 26.6541 28.6757 29.4946ZM38.623 19.273H31.5409C31.4946 16.1347 30.9835 13.0205 30.0244 10.0319C31.5276 9.54627 32.9756 8.90392 34.3444 8.11543C36.9627 11.2613 38.4668 15.1842 38.623 19.273ZM29.5355 8.66589C28.4522 5.91531 26.9811 3.6587 25.2569 2.11461C28.3324 3.02393 31.1233 4.71143 33.3582 7.01603C32.1407 7.68903 30.8604 8.24161 29.5355 8.66589ZM10.4519 8.66588C9.12702 8.2416 7.84674 7.68902 6.62931 7.01603C8.86262 4.71261 11.6514 3.02549 14.7248 2.11553C13.0019 3.65276 11.5345 5.91406 10.4519 8.66588ZM10.4237 31.2674C11.5097 34.0466 12.9863 36.3322 14.7216 37.8801C11.6277 36.9646 8.82243 35.2617 6.58177 32.9357C7.8044 32.2548 9.09126 31.696 10.4237 31.2674Z" fill="black" stroke="black" stroke-width="0.2"/>
</g>
<defs>
<clipPath id="clip0">
<rect width="40" height="40" fill="white"/>
</clipPath>
</defs>
</svg>
