<svg width="124" height="30" viewBox="0 0 124 30" fill="none" xmlns="http://www.w3.org/2000/svg">
<path d="M40.0813 4.4899C40.0813 5.38668 39.8158 6.10085 39.2839 6.63358C38.6798 7.26704 37.8924 7.58398 36.9244 7.58398C35.9975 7.58398 35.2093 7.26287 34.5612 6.61977C33.9119 5.97711 33.5879 5.1802 33.5879 4.22937C33.5879 3.27811 33.9119 2.48163 34.5612 1.83854C35.2093 1.19587 35.9975 0.874328 36.9244 0.874328C37.3844 0.874328 37.8247 0.96424 38.2428 1.14364C38.6609 1.32346 38.9963 1.56216 39.2472 1.86112L38.6826 2.42597C38.2575 1.91796 37.6721 1.66417 36.9244 1.66417C36.2484 1.66417 35.6638 1.90169 35.1705 2.37705C34.677 2.85295 34.4304 3.47003 34.4304 4.22937C34.4304 4.98871 34.677 5.60579 35.1705 6.08169C35.6638 6.55705 36.2484 6.79457 36.9244 6.79457C37.6416 6.79457 38.2395 6.55576 38.7182 6.07751C39.0289 5.76592 39.2086 5.33284 39.2567 4.77666H36.9244V4.00523H40.0366C40.0667 4.17296 40.0813 4.33395 40.0813 4.4899Z" fill="white"/>
<path d="M40.0809 4.48833H39.9739C39.9731 5.36466 39.7171 6.04533 39.2078 6.55633L39.2066 6.55719L39.2062 6.55804C38.6213 7.16967 37.8694 7.47409 36.924 7.47537C36.0218 7.47409 35.2666 7.16635 34.6361 6.54253C34.0069 5.91742 33.6957 5.15433 33.6945 4.2278C33.6957 3.30084 34.0069 2.53818 34.6361 1.9135C35.2666 1.28925 36.0218 0.981083 36.924 0.979798C37.3702 0.979798 37.795 1.06682 38.2002 1.24033C38.6057 1.41513 38.9261 1.64419 39.1648 1.92859L39.2468 1.85955L39.1711 1.78388L38.6066 2.34915L38.6823 2.4244L38.7647 2.3559C38.3197 1.82273 37.6951 1.55396 36.924 1.55556C36.2229 1.55471 35.6062 1.80518 35.096 2.29863C34.5809 2.79369 34.3221 3.44545 34.323 4.2278C34.3221 5.01015 34.5809 5.66191 35.096 6.15697C35.6062 6.65042 36.2229 6.90089 36.924 6.90004C37.665 6.90132 38.2964 6.64999 38.7935 6.15162C39.1255 5.81872 39.3137 5.3576 39.363 4.7843L39.373 4.66805H37.0311V4.1107H40.0362V4.00366L39.9308 4.0225C39.9601 4.18477 39.9739 4.33901 39.9739 4.48833H40.0809H40.188C40.188 4.32563 40.1729 4.15844 40.1415 3.9845L40.1257 3.89662H36.817V4.77509V4.88213H39.2563V4.77509L39.1497 4.76589C39.1025 5.30451 38.931 5.71008 38.6421 6.00026C38.1822 6.4585 37.6178 6.68467 36.924 6.68596C36.273 6.6851 35.7207 6.46096 35.2445 6.00315C34.7729 5.54695 34.5382 4.96455 34.5371 4.2278C34.5382 3.49105 34.7729 2.90865 35.2445 2.45245C35.7207 1.99464 36.273 1.7705 36.924 1.76964C37.6478 1.77135 38.1944 2.01048 38.6004 2.49344L38.6756 2.58293L39.3225 1.93523L39.3918 1.86587L39.3287 1.79094C39.0657 1.47742 38.7153 1.22856 38.2846 1.04381C37.8531 0.858522 37.3978 0.76572 36.924 0.76572C35.9725 0.764863 35.1512 1.09936 34.4851 1.76129C33.8166 2.42194 33.4796 3.25235 33.4805 4.2278C33.4796 5.20282 33.8166 6.03366 34.4856 6.69473C35.1512 7.35624 35.9725 7.69031 36.924 7.68945C37.915 7.69031 38.7371 7.36116 39.3609 6.70598L39.2835 6.63201L39.3592 6.70769C39.9136 6.15365 40.1887 5.40523 40.188 4.48833H40.0809Z" fill="white"/>
<path d="M45.0149 1.80803H42.0901V3.84435H44.7277V4.6161H42.0901V6.65242H45.0149V7.44141H41.2656V1.01904H45.0149V1.80803Z" fill="white"/>
<path d="M45.0145 1.80646V1.69942H41.9827V3.94982H44.6203V4.50717L41.9827 4.50749V6.75789H44.9075V7.3328H41.3723V1.12451H44.9075V1.80646H45.0145V1.69942V1.80646H45.1216V1.01747V0.910435H41.1582V7.54688H45.1216V6.65085V6.54381H42.1968V4.72157H44.8344V3.84278V3.73574H42.1968V1.9135H45.1216V1.80646H45.0145Z" fill="white"/>
<path d="M48.4965 7.44141H47.6707V1.80803H45.877V1.01904H50.2903V1.80803H48.4965V7.44141Z" fill="white"/>
<path d="M48.4961 7.43984V7.3328H47.7774V1.69942H45.9836V1.12451H50.1829V1.69942H48.3891V7.43984H48.4961V7.3328V7.43984H48.6032V1.9135H50.3969V1.01747V0.910435H45.7695V1.80646V1.9135H47.5633V7.54688H48.4961H48.6032V7.43984H48.4961Z" fill="white"/>
<path d="M53.4824 7.44141V1.01904H54.3074V7.44141H53.4824Z" fill="white"/>
<path d="M53.482 7.43984H53.5891V1.12451H54.1999V7.3328H53.482V7.43984H53.5891H53.482V7.54688H54.307H54.414V0.910435H53.482H53.375V7.54688H53.482V7.43984Z" fill="white"/>
<path d="M57.9691 7.44141H57.1433V1.80803H55.3496V1.01904H59.7628V1.80803H57.9691V7.44141Z" fill="white"/>
<path d="M57.9687 7.43984V7.3328H57.2499V1.69942H55.4563V1.12451H59.6554V1.69942H57.8616V7.43984H57.9687V7.3328V7.43984H58.0757V1.9135H59.8695V1.01747V0.910435H55.2422V1.80646V1.9135H57.0358V7.54688H57.9687H58.0757V7.43984H57.9687Z" fill="white"/>
<path d="M64.0163 6.07291C64.4917 6.55416 65.0733 6.79457 65.7612 6.79457C66.449 6.79457 67.031 6.55416 67.5056 6.07291C67.9814 5.59166 68.2197 4.97651 68.2197 4.22937C68.2197 3.48224 67.9814 2.86708 67.5056 2.38583C67.031 1.90458 66.449 1.66417 65.7612 1.66417C65.0733 1.66417 64.4917 1.90458 64.0163 2.38583C63.5417 2.86708 63.3034 3.48224 63.3034 4.22937C63.3034 4.97651 63.5417 5.59166 64.0163 6.07291ZM68.116 6.61057C67.4846 7.25987 66.6994 7.58398 65.7612 7.58398C64.822 7.58398 64.0372 7.25987 63.4072 6.61057C62.7753 5.96202 62.4609 5.16811 62.4609 4.22937C62.4609 3.29063 62.7753 2.49662 63.4072 1.84817C64.0372 1.19876 64.822 0.874328 65.7612 0.874328C66.6944 0.874328 67.4775 1.20048 68.1119 1.85235C68.7453 2.50422 69.0623 3.29652 69.0623 4.22937C69.0623 5.16811 68.7461 5.96202 68.116 6.61057Z" fill="white"/>
<path d="M64.0179 6.07134L63.9418 6.14659C64.4348 6.6471 65.0499 6.90132 65.7627 6.90004C66.4752 6.90132 67.0911 6.6471 67.5833 6.14659C68.0795 5.64564 68.3291 4.99752 68.3284 4.2278C68.3291 3.45808 68.0795 2.80996 67.5833 2.30901C67.0911 1.8085 66.4752 1.55428 65.7627 1.55556C65.0499 1.55428 64.4348 1.8085 63.9418 2.30901C63.4467 2.80996 63.1967 3.45808 63.198 4.2278C63.1967 4.99752 63.4467 5.64564 63.9418 6.14659L64.0179 6.07134L64.094 5.99609C63.6399 5.534 63.4129 4.95278 63.4121 4.2278C63.4129 3.50282 63.6399 2.9216 64.094 2.45951C64.5522 1.99753 65.0995 1.77093 65.7627 1.76964C66.4254 1.77093 66.974 1.99753 67.4311 2.45951C67.886 2.9216 68.113 3.50282 68.1139 4.2278C68.113 4.95278 67.886 5.534 67.4311 5.99609C66.974 6.45807 66.4254 6.68467 65.7627 6.68596C65.0995 6.68467 64.5522 6.45807 64.094 5.99609L64.0179 6.07134ZM68.1176 6.609L68.0411 6.5346C67.4273 7.16346 66.6768 7.47409 65.7627 7.47537C64.8483 7.47409 64.0977 7.16346 63.4852 6.5346L63.4823 6.53128L63.4852 6.5346C62.8727 5.90361 62.5704 5.14266 62.5695 4.2278C62.5704 3.31293 62.8727 2.55199 63.4852 1.92099C64.0977 1.29214 64.8483 0.981081 65.7627 0.979797C66.6709 0.981081 67.4197 1.29342 68.0369 1.9256C68.6515 2.55948 68.9555 3.31925 68.9568 4.2278C68.9555 5.14266 68.6524 5.90361 68.0411 6.5346L68.1176 6.609L68.1946 6.68339C68.8434 6.01696 69.1716 5.1903 69.1709 4.2278C69.1716 3.27076 68.8422 2.44581 68.1903 1.77638C67.5381 1.10439 66.7211 0.764541 65.7627 0.765718C64.7994 0.764541 63.9799 1.10278 63.3318 1.77221V1.77178C62.6816 2.43864 62.3546 3.2653 62.3555 4.2278C62.3546 5.1903 62.6816 6.01696 63.3318 6.68382L63.3347 6.68681L63.3318 6.68339C63.9799 7.35281 64.7994 7.69031 65.7627 7.68945C66.7257 7.69031 67.5452 7.35281 68.1946 6.68339L68.1176 6.609Z" fill="white"/>
<path d="M70.2207 7.44141V1.01904H71.2251L74.3463 6.01521H74.3819L74.3463 4.77752V1.01904H75.1721V7.44141H74.3108L71.0452 2.20311H71.0097L71.0452 3.44124V7.44141H70.2207Z" fill="white"/>
<path d="M70.2203 7.43984H70.3274V1.12451H71.1653L74.2865 6.12068H74.3815H74.4914L74.453 4.77434V1.12451H75.0647V7.3328H74.3698L71.1043 2.09451H71.0093H70.8994L70.9378 3.44138V7.3328H70.2203V7.43984H70.3274H70.2203V7.54688H71.0448H71.1519V3.43796L71.1163 2.19865L71.0093 2.20154V2.30858H71.0448V2.20154L70.9541 2.25849L74.251 7.54688H75.1717H75.2788V0.910435H74.3459H74.2389V4.77723L74.2744 6.01653L74.3815 6.01364V5.9066H74.3459V6.01364L74.4367 5.9568L71.284 0.910435H70.2203H70.1133V7.54688H70.2203V7.43984Z" fill="white"/>
<path d="M103.789 25.6369H105.786V12.2557H103.789V25.6369ZM121.779 17.0759L119.489 22.8773H119.421L117.044 17.0759H114.893L118.456 25.1844L116.425 29.6947H118.509L124 17.0759H121.779ZM110.452 24.117C109.797 24.117 108.885 23.79 108.885 22.9806C108.885 21.9478 110.021 21.5518 111.002 21.5518C111.881 21.5518 112.293 21.7412 112.827 21.9997C112.672 23.239 111.605 24.117 110.452 24.117ZM110.693 16.7831C109.247 16.7831 107.749 17.4203 107.129 18.8319L108.902 19.572C109.281 18.8319 109.986 18.5907 110.727 18.5907C111.76 18.5907 112.81 19.2108 112.827 20.3125V20.4501C112.465 20.2435 111.691 19.9337 110.744 19.9337C108.833 19.9337 106.887 20.9835 106.887 22.9462C106.887 24.7367 108.454 25.8902 110.21 25.8902C111.553 25.8902 112.293 25.2877 112.758 24.582H112.827V25.6147H114.755V20.4843C114.755 18.109 112.982 16.7831 110.693 16.7831ZM98.3489 18.7048H95.508V14.118H98.3489C99.8421 14.118 100.69 15.3543 100.69 16.4114C100.69 17.4484 99.8421 18.7048 98.3489 18.7048ZM98.2975 12.2557H93.5117V25.6369H95.508V20.5672H98.2975C100.511 20.5672 102.687 18.9645 102.687 16.4114C102.687 13.8584 100.511 12.2557 98.2975 12.2557ZM72.2002 24.1195C70.8204 24.1195 69.6651 22.9642 69.6651 21.3774C69.6651 19.774 70.8204 18.6012 72.2002 18.6012C73.5625 18.6012 74.6316 19.774 74.6316 21.3774C74.6316 22.9642 73.5625 24.1195 72.2002 24.1195ZM74.4936 17.8251H74.4246C73.9764 17.2907 73.1138 16.8078 72.0276 16.8078C69.7513 16.8078 67.6648 18.8081 67.6648 21.3774C67.6648 23.9297 69.7513 25.9128 72.0276 25.9128C73.1138 25.9128 73.9764 25.4298 74.4246 24.8784H74.4936V25.5336C74.4936 27.2755 73.5625 28.2067 72.0622 28.2067C70.8379 28.2067 70.0791 27.3269 69.7684 26.5856L68.027 27.3098C68.527 28.5169 69.855 30 72.0622 30C74.4075 30 76.3906 28.6202 76.3906 25.2576V17.0838H74.4936V17.8251ZM77.77 25.6369H79.7704V12.2552H77.77V25.6369ZM82.7193 21.2223C82.6675 19.4633 84.0816 18.5668 85.0989 18.5668C85.8927 18.5668 86.5649 18.9632 86.7886 19.5327L82.7193 21.2223ZM88.9272 19.705C88.5483 18.6872 87.3923 16.8078 85.0298 16.8078C82.6846 16.8078 80.7362 18.653 80.7362 21.3603C80.7362 23.9126 82.6675 25.9128 85.254 25.9128C87.3409 25.9128 88.5483 24.6367 89.0482 23.8953L87.4961 22.8605C86.9791 23.6194 86.2716 24.1195 85.254 24.1195C84.2367 24.1195 83.5126 23.6537 83.0467 22.7401L89.1338 20.2222L88.9272 19.705ZM40.4296 18.2047V20.136H45.0511C44.9131 21.2223 44.551 22.0155 43.9991 22.5674C43.3268 23.2401 42.2748 23.9815 40.4296 23.9815C37.5842 23.9815 35.3598 21.6881 35.3598 18.8428C35.3598 15.9974 37.5842 13.7037 40.4296 13.7037C41.9645 13.7037 43.0851 14.3074 43.9129 15.0834L45.2752 13.7212C44.1199 12.6173 42.585 11.7724 40.4296 11.7724C36.5322 11.7724 33.2559 14.9454 33.2559 18.8428C33.2559 22.7401 36.5322 25.9128 40.4296 25.9128C42.5336 25.9128 44.1199 25.2234 45.3614 23.9297C46.6375 22.6536 47.0343 20.8602 47.0343 19.4119C47.0343 18.9632 46.9999 18.5497 46.9306 18.2047H40.4296ZM52.2884 24.1195C50.9086 24.1195 49.7186 22.9813 49.7186 21.3603C49.7186 19.7221 50.9086 18.6012 52.2884 18.6012C53.6677 18.6012 54.8577 19.7221 54.8577 21.3603C54.8577 22.9813 53.6677 24.1195 52.2884 24.1195ZM52.2884 16.8078C49.7704 16.8078 47.7183 18.7219 47.7183 21.3603C47.7183 23.9815 49.7704 25.9128 52.2884 25.9128C54.8059 25.9128 56.858 23.9815 56.858 21.3603C56.858 18.7219 54.8059 16.8078 52.2884 16.8078ZM62.2572 24.1195C60.8779 24.1195 59.6878 22.9813 59.6878 21.3603C59.6878 19.7221 60.8779 18.6012 62.2572 18.6012C63.6366 18.6012 64.8266 19.7221 64.8266 21.3603C64.8266 22.9813 63.6366 24.1195 62.2572 24.1195ZM62.2572 16.8078C59.7393 16.8078 57.6876 18.7219 57.6876 21.3603C57.6876 23.9815 59.7393 25.9128 62.2572 25.9128C64.7748 25.9128 66.8269 23.9815 66.8269 21.3603C66.8269 18.7219 64.7748 16.8078 62.2572 16.8078Z" fill="white"/>
<path d="M0.574909 28.1953L0.495377 28.1192C0.183893 27.7896 0 27.2779 0 26.6152V26.7712V3.09833C0 3.09619 0 3.09459 0 3.09287C0 3.09491 0 3.09662 0 3.09876V3.25514C0 2.53755 0.214399 1.997 0.573623 1.67289L13.8356 14.9345L0.574909 28.1953ZM0 3.09159C0 3.03261 0.00160551 2.97534 0.00460261 2.91893C0.00160551 2.97491 0 3.03261 0 3.09159ZM0.00460261 2.91637C0.00460261 2.91562 0.00460162 2.91476 0.00492274 2.9139C0.00460162 2.91476 0.00460261 2.91562 0.00460261 2.91637ZM0.00492274 2.90887C0.00492274 2.90844 0.00492274 2.90802 0.00492274 2.90759C0.00492274 2.90802 0.00492274 2.90844 0.00492274 2.90887Z" fill="url(#paint0_linear)"/>
<path d="M18.2559 19.5137L18.3567 19.4564L23.5941 16.4806C24.0934 16.1967 24.4262 15.8526 24.5922 15.4885C24.4266 15.8526 24.0937 16.1972 23.5941 16.481L18.3567 19.4568L18.2559 19.5137ZM18.2572 19.3569L13.8359 14.9348L18.2568 10.5136L23.5941 13.5458C24.2718 13.9309 24.6524 14.4273 24.716 14.9344C24.716 14.9348 24.716 14.9357 24.716 14.9365C24.6524 15.4424 24.2718 15.9392 23.5941 16.3242L18.2572 19.3569Z" fill="url(#paint1_linear)"/>
<path d="M1.52011 28.6992C1.14965 28.6992 0.826389 28.5788 0.574311 28.3513L0.574741 28.3509C0.826818 28.5784 1.15051 28.6992 1.52097 28.6992C1.55308 28.6992 1.58573 28.6984 1.6188 28.6968C1.5853 28.6984 1.55222 28.6992 1.52011 28.6992ZM1.52054 28.5424C1.15008 28.5428 0.826818 28.422 0.574741 28.1945V28.1942L13.8354 14.9334L18.2567 19.3554L2.7197 28.1833C2.28983 28.427 1.88255 28.5424 1.52054 28.5424ZM0.570994 28.3484C0.547552 28.3271 0.524538 28.3046 0.501953 28.2811L0.570994 28.3484Z" fill="url(#paint2_linear)"/>
<path d="M13.8362 14.9336L0.574219 1.67196C0.826296 1.44492 1.14913 1.3245 1.51916 1.3245C1.88213 1.3245 2.28974 1.44032 2.72046 1.68448L18.257 10.5123L13.8362 14.9336ZM18.357 10.4125L2.72046 1.5282C2.28974 1.28394 1.88213 1.16812 1.51916 1.16812C1.51745 1.16812 1.51627 1.16812 1.51456 1.16812C1.5167 1.16812 1.51831 1.16812 1.52087 1.16812C1.88299 1.16812 2.29017 1.28351 2.72046 1.52777L18.357 10.4125Z" fill="url(#paint3_linear)"/>
<path d="M1.61969 28.6973C1.95622 28.678 2.32882 28.5622 2.72059 28.3402L18.2563 19.5128L2.72059 28.3402C2.32914 28.5626 1.95622 28.678 1.61969 28.6973ZM0.575196 28.3519L0.571878 28.349C0.573056 28.3498 0.574339 28.351 0.575196 28.3519ZM0.502838 28.2816L0.496094 28.275V28.2746C0.498663 28.277 0.500697 28.2795 0.502838 28.2816Z" fill="black"/>
<path d="M18.2559 19.5137L18.3567 19.4564L18.2559 19.5137Z" fill="url(#paint4_linear)"/>
<path d="M1.52185 28.6992C1.15139 28.6992 0.827703 28.5784 0.575625 28.3509L0.575196 28.3513C0.574339 28.3505 0.573056 28.3493 0.571878 28.3484L0.502838 28.2811C0.500697 28.279 0.498663 28.2765 0.496094 28.2741L0.575625 28.1945C0.827703 28.422 1.15096 28.5428 1.52142 28.5424C1.88343 28.5424 2.29072 28.427 2.72059 28.1833L18.2576 19.3554L18.3571 19.455L18.2563 19.5122L2.72059 28.3397C2.32882 28.5617 1.95622 28.6775 1.61969 28.6968C1.58661 28.6984 1.55396 28.6992 1.52185 28.6992Z" fill="url(#paint5_linear)"/>
<path d="M0.495377 28.2773C0.183893 27.9478 0 27.436 0 26.7733V26.7729C0 27.436 0.183893 27.9473 0.495377 28.2769V28.2773Z" fill="black"/>
<path d="M0.495378 28.2734C0.183893 27.9439 0 27.4325 0 26.7694V26.6135C0 27.2762 0.183893 27.7879 0.495378 28.1175L0.57491 28.1936L0.495378 28.2734Z" fill="url(#paint6_linear)"/>
<path d="M0.496094 28.2734L0.575626 28.1936V28.1939L0.496094 28.2734Z" fill="url(#paint7_linear)"/>
<path d="M24.5918 15.4883C24.6741 15.3076 24.7155 15.122 24.7155 14.9363C24.7155 14.936 24.7155 14.9355 24.7155 14.9355C24.7155 15.1216 24.6741 15.3072 24.5918 15.4883Z" fill="black"/>
<path d="M18.3574 19.4551L18.2578 19.3555L23.5947 16.3229C24.2725 15.9379 24.653 15.4411 24.7166 14.9351C24.7166 15.1208 24.6751 15.3064 24.5928 15.4871C24.4268 15.8513 24.094 16.1954 23.5947 16.4793L18.3574 19.4551Z" fill="url(#paint8_linear)"/>
<path d="M24.7151 14.9336V14.9332C24.7147 14.3732 24.3405 13.8134 23.5932 13.3886L18.3559 10.4128H18.3555L18.3559 10.4125L23.5932 13.3882C24.3413 13.813 24.716 14.3737 24.7151 14.9336Z" fill="#404040"/>
<path d="M24.717 14.9336C24.6534 14.4264 24.2729 13.9301 23.5951 13.545L18.2578 10.5128L18.3574 10.4132H18.3578L23.5951 13.389C24.3424 13.8139 24.7166 14.3737 24.717 14.9336Z" fill="url(#paint9_linear)"/>
<path d="M0 3.0918C0 3.09137 0 3.09094 0 3.09051C0 3.09094 0 3.09137 0 3.0918ZM0.00460261 2.91786C0.00460261 2.917 0.00460261 2.91615 0.00460261 2.91529C0.00460261 2.91615 0.00460261 2.917 0.00460261 2.91786ZM0.00492274 2.91283C0.00492274 2.91111 0.00492274 2.90951 0.00492274 2.9078C0.00492274 2.90951 0.00492274 2.91111 0.00492274 2.91283ZM0.00492274 2.90651C0.0668985 1.8069 0.66482 1.17173 1.51065 1.16798C1.14393 1.17012 0.824523 1.29054 0.574479 1.51586V1.51543L0.571482 1.51843C0.54515 1.54219 0.520103 1.56734 0.495377 1.59325C0.214399 1.8905 0.0371416 2.33578 0.00492274 2.90651Z" fill="#404040"/>
<path d="M0 3.25391V3.09752C0 3.09538 0 3.09367 0 3.09164C0 3.09121 0 3.09078 0 3.09035C0 3.03137 0.00160552 2.97368 0.00460263 2.9177C0.00460263 2.91684 0.00460263 2.91598 0.00460263 2.91513C0.00460263 2.91438 0.00460163 2.91352 0.00492275 2.91267C0.00492275 2.91095 0.00492275 2.90935 0.00492275 2.90764C0.00492275 2.90721 0.00492275 2.90678 0.00492275 2.90635C0.0371417 2.33562 0.214399 1.89033 0.495378 1.59308L0.573625 1.67165C0.2144 1.99577 0 2.53631 0 3.25391ZM0.571483 1.51826L0.574481 1.51527C0.573624 1.51655 0.57234 1.5174 0.571483 1.51826Z" fill="url(#paint10_linear)"/>
<path d="M18.2571 10.5117L2.72059 1.68386C2.28986 1.4397 1.88225 1.32389 1.51928 1.32389C1.14925 1.32389 0.826418 1.44431 0.57434 1.67134L0.496094 1.59277C0.52082 1.56687 0.545867 1.54171 0.572199 1.51795C0.573055 1.51709 0.574339 1.51624 0.575196 1.51538C0.82524 1.29006 1.14465 1.16964 1.51136 1.1675C1.51222 1.1675 1.5134 1.1675 1.51468 1.1675C1.51639 1.1675 1.51757 1.1675 1.51928 1.1675C1.88225 1.1675 2.28986 1.28332 2.72059 1.52758L18.3571 10.4118L18.3567 10.4122L18.2571 10.5117Z" fill="url(#paint11_linear)"/>
<defs>
<linearGradient id="paint0_linear" x1="12.6597" y1="2.84861" x2="-5.30422" y2="20.8125" gradientUnits="userSpaceOnUse">
<stop stop-color="#00A0FF"/>
<stop offset="0.00657445" stop-color="#00A1FF"/>
<stop offset="0.2601" stop-color="#00BEFF"/>
<stop offset="0.5122" stop-color="#00D2FF"/>
<stop offset="0.7604" stop-color="#00DFFF"/>
<stop offset="1" stop-color="#00E3FF"/>
</linearGradient>
<linearGradient id="paint1_linear" x1="25.5418" y1="14.9355" x2="-0.35855" y2="14.9355" gradientUnits="userSpaceOnUse">
<stop stop-color="#FFE000"/>
<stop offset="0.4087" stop-color="#FFBD00"/>
<stop offset="0.7754" stop-color="#FFA500"/>
<stop offset="1" stop-color="#FF9C00"/>
</linearGradient>
<linearGradient id="paint2_linear" x1="15.8998" y1="17.3903" x2="-8.46057" y2="41.7506" gradientUnits="userSpaceOnUse">
<stop stop-color="#FF3A44"/>
<stop offset="1" stop-color="#C31162"/>
</linearGradient>
<linearGradient id="paint3_linear" x1="-2.86314" y1="-6.28653" x2="8.01474" y2="4.59134" gradientUnits="userSpaceOnUse">
<stop stop-color="#32A071"/>
<stop offset="0.0685" stop-color="#2DA771"/>
<stop offset="0.4762" stop-color="#15CF74"/>
<stop offset="0.8009" stop-color="#06E775"/>
<stop offset="1" stop-color="#00F076"/>
</linearGradient>
<linearGradient id="paint4_linear" x1="25.5417" y1="14.9357" x2="-0.358675" y2="14.9357" gradientUnits="userSpaceOnUse">
<stop stop-color="#CCB300"/>
<stop offset="0.4087" stop-color="#CC9700"/>
<stop offset="0.7754" stop-color="#CC8400"/>
<stop offset="1" stop-color="#CC7D00"/>
</linearGradient>
<linearGradient id="paint5_linear" x1="15.9007" y1="17.3903" x2="-8.45968" y2="41.7506" gradientUnits="userSpaceOnUse">
<stop stop-color="#CC2E36"/>
<stop offset="1" stop-color="#9C0E4E"/>
</linearGradient>
<linearGradient id="paint6_linear" x1="12.6597" y1="2.84688" x2="-5.3042" y2="20.8108" gradientUnits="userSpaceOnUse">
<stop stop-color="#008DE0"/>
<stop offset="0.00657445" stop-color="#008DE0"/>
<stop offset="0.2601" stop-color="#00A7E0"/>
<stop offset="0.5122" stop-color="#00B8E0"/>
<stop offset="0.7604" stop-color="#00C4E0"/>
<stop offset="1" stop-color="#00C7E0"/>
</linearGradient>
<linearGradient id="paint7_linear" x1="15.901" y1="17.3898" x2="-8.45904" y2="41.7507" gradientUnits="userSpaceOnUse">
<stop stop-color="#E0333C"/>
<stop offset="1" stop-color="#AB0F56"/>
</linearGradient>
<linearGradient id="paint8_linear" x1="25.5424" y1="14.9342" x2="-0.357935" y2="14.9342" gradientUnits="userSpaceOnUse">
<stop stop-color="#E0C500"/>
<stop offset="0.4087" stop-color="#E0A600"/>
<stop offset="0.7754" stop-color="#E09100"/>
<stop offset="1" stop-color="#E08900"/>
</linearGradient>
<linearGradient id="paint9_linear" x1="25.5428" y1="14.9347" x2="-0.357494" y2="14.9347" gradientUnits="userSpaceOnUse">
<stop stop-color="#FFE840"/>
<stop offset="0.4087" stop-color="#FFCE40"/>
<stop offset="0.7754" stop-color="#FFBC40"/>
<stop offset="1" stop-color="#FFB540"/>
</linearGradient>
<linearGradient id="paint10_linear" x1="12.6597" y1="2.84737" x2="-5.30423" y2="20.8113" gradientUnits="userSpaceOnUse">
<stop stop-color="#40B8FF"/>
<stop offset="0.00657445" stop-color="#40B9FF"/>
<stop offset="0.2601" stop-color="#40CEFF"/>
<stop offset="0.5122" stop-color="#40DDFF"/>
<stop offset="0.7604" stop-color="#40E7FF"/>
<stop offset="1" stop-color="#40EAFF"/>
</linearGradient>
<linearGradient id="paint11_linear" x1="-2.86302" y1="-6.28715" x2="8.01486" y2="4.59073" gradientUnits="userSpaceOnUse">
<stop stop-color="#65B895"/>
<stop offset="0.0685" stop-color="#62BD95"/>
<stop offset="0.4762" stop-color="#50DB97"/>
<stop offset="0.8009" stop-color="#44ED98"/>
<stop offset="1" stop-color="#40F498"/>
</linearGradient>
</defs>
</svg>
