<svg width="447" height="308" viewBox="0 0 447 308" fill="none" xmlns="http://www.w3.org/2000/svg">
<path d="M45.0318 140.927L270.747 300.235C277.201 304.79 285.731 305.12 292.517 301.076L395.773 239.547C408.474 231.979 408.856 213.722 396.482 205.629L139.421 37.4895C133.055 33.3251 124.876 33.1335 118.322 36.9952L25.6733 91.578C13.4232 98.795 12.4038 116.13 23.7236 124.733L45.0318 140.927Z" fill="#D9DBE9" stroke="black" stroke-linecap="round" stroke-linejoin="round"/>
<path d="M403.093 231.697L404.489 228.905C405.178 227.526 405.701 226.071 406.048 224.569L406.276 223.58C406.753 221.511 406.922 219.384 406.776 217.266L406.184 208.687L404.477 214.149L404.453 214.226L404.407 214.291L399.555 221.083L403.093 231.697Z" fill="#D9DBE9" stroke="black"/>
<path d="M395 225L400.5 220.5L403.5 230L402.5 232L395 225Z" fill="#D9DBE9"/>
<path d="M19.3985 120.27L18.2522 118.168C17.4026 116.611 16.7695 114.944 16.3705 113.215L16.1941 112.451C15.7359 110.465 15.5623 108.424 15.6785 106.39L16.2972 95.5637L18.0124 103.111L18.0347 103.209L18.0931 103.291L22.9428 110.08L19.3985 120.27Z" fill="#D9DBE9" stroke="black"/>
<path d="M27.5 114L22 109.5L18 116.5L20 120.5L27.5 114Z" fill="#D9DBE9"/>
<path d="M45.7525 127.238L271.467 286.546C277.921 291.101 286.452 291.43 293.238 287.387L396.493 225.858C409.194 218.289 409.576 200.032 397.203 191.939L140.142 23.8001C133.775 19.6357 125.597 19.4441 119.042 23.3058L26.394 77.8886C14.144 85.1056 13.1245 102.441 24.4443 111.044L45.7525 127.238Z" fill="#F7F7FC" stroke="black" stroke-linecap="round" stroke-linejoin="round"/>
<rect x="67.0445" y="61.4889" width="34.1434" height="3.88204" rx="1.94102" transform="rotate(-30 67.0445 61.4889)" fill="#B1B3C0" stroke="black"/>
<path d="M278.617 131.313C279.502 132.198 280.905 132.274 281.9 131.548C323.774 100.994 365.532 108.455 398.484 127.682C399.17 128.082 399.33 128.798 399.096 129.445C398.86 130.099 398.246 130.603 397.431 130.537C367.269 128.096 340.939 139.116 315.184 164.325C314.195 165.292 314.189 166.885 315.166 167.862L333.902 186.598C334.847 187.543 334.177 189.158 332.841 189.158L259.208 189.158C258.38 189.158 257.708 188.487 257.708 187.658L257.708 114.026C257.708 112.689 259.324 112.02 260.269 112.965L278.617 131.313Z" fill="url(#paint0_linear)" stroke="black"/>
<path d="M112.758 125.318C113.082 126.526 112.45 127.777 111.326 128.28C77.4756 143.454 66.5026 171.708 66.0295 199.17C66.016 199.959 66.5449 200.461 67.2306 200.592C67.925 200.724 68.6902 200.452 69.0653 199.722C78.8114 180.739 95.2655 168.565 119.876 161.588C121.209 161.209 122.588 162.005 122.946 163.338L127.586 180.656C127.932 181.947 129.666 182.176 130.334 181.018L156.809 135.163C157.223 134.445 156.977 133.528 156.26 133.114L110.404 106.639C109.247 105.971 107.859 107.035 108.205 108.326L112.758 125.318Z" fill="url(#paint1_linear)" stroke="black"/>
<defs>
<linearGradient id="paint0_linear" x1="127.5" y1="227" x2="208.253" y2="42.2079" gradientUnits="userSpaceOnUse">
<stop stop-color="#53EAFF"/>
<stop offset="1" stop-color="#B9F348"/>
</linearGradient>
<linearGradient id="paint1_linear" x1="246.5" y1="70.0001" x2="98.3198" y2="41.7437" gradientUnits="userSpaceOnUse">
<stop stop-color="#53EAFF"/>
<stop offset="1" stop-color="#B9F348"/>
</linearGradient>
</defs>
</svg>
