<svg width="40" height="40" viewBox="0 0 40 40" fill="none" xmlns="http://www.w3.org/2000/svg">
<path d="M28 0H12C9.79523 0 8 1.79523 8 4V36C8 38.2064 9.79523 40 12 40H28C30.2064 40 32 38.2064 32 36V4C32 1.79523 30.2064 0 28 0ZM30.4 36C30.4 37.3232 29.3232 38.4 28 38.4H12C10.6768 38.4 9.6 37.3232 9.6 36V4C9.6 2.6768 10.6768 1.6 12 1.6H28C29.3232 1.6 30.4 2.6768 30.4 4V36Z" fill="#262626"/>
<path d="M21.6006 3.19922H18.4006C17.9589 3.19922 17.6006 3.55766 17.6006 3.99922C17.6006 4.44078 17.959 4.79922 18.4006 4.79922H21.6006C22.0421 4.79922 22.4006 4.44078 22.4006 3.99922C22.4006 3.55766 22.0421 3.19922 21.6006 3.19922Z" fill="#262626"/>
<path d="M20.0002 35.1992C19.5586 35.1992 19.2002 35.5577 19.2002 35.9992C19.2002 36.4408 19.5586 36.7992 20.0002 36.7992C20.4418 36.7992 20.8002 36.4408 20.8002 35.9992C20.8002 35.5577 20.4418 35.1992 20.0002 35.1992Z" fill="#262626"/>
<path d="M31.2 6.40039H8.8C8.35836 6.40039 8 6.75883 8 7.20039C8 7.64203 8.35836 8.00039 8.8 8.00039H31.2C31.6416 8.00039 32 7.64195 32 7.20039C32 6.75883 31.6416 6.40039 31.2 6.40039Z" fill="#262626"/>
<path d="M31.2 32H8.8C8.35836 32 8 32.3584 8 32.8C8 33.2416 8.35836 33.6 8.8 33.6H31.2C31.6416 33.6 32 33.2416 32 32.8C32 32.3584 31.6416 32 31.2 32Z" fill="#262626"/>
</svg>
