<svg width="42" height="42" viewBox="0 0 42 42" fill="none" xmlns="http://www.w3.org/2000/svg">
<path d="M28 42H23.3333V37.3333H28V42ZM23.3333 25.6667H18.6667V37.3333H23.3333V25.6667ZM42 21H37.3333V30.3333H42V21ZM37.3333 16.3333H32.6667V21H37.3333V16.3333ZM9.33333 21H4.66667V25.6667H9.33333V21ZM4.66667 16.3333H0V21H4.66667V16.3333ZM21 4.66667H25.6667V0H21V4.66667ZM3.5 3.5V10.5H10.5V3.5H3.5ZM14 14H0V0H14V14ZM3.5 31.5V38.5H10.5V31.5H3.5ZM14 42H0V28H14V42ZM31.5 3.5V10.5H38.5V3.5H31.5ZM42 14H28V0H42V14ZM37.3333 37.3333V30.3333H28V35H32.6667V42H42V37.3333H37.3333ZM32.6667 21H23.3333V25.6667H32.6667V21ZM23.3333 16.3333H9.33333V21H14V25.6667H18.6667V21H23.3333V16.3333ZM25.6667 14V9.33333H21V4.66667H16.3333V14H25.6667ZM8.75 5.25H5.25V8.75H8.75V5.25ZM8.75 33.25H5.25V36.75H8.75V33.25ZM36.75 5.25H33.25V8.75H36.75V5.25Z" fill="black"/>
</svg>
