<svg width="37" height="23" viewBox="0 0 37 23" fill="none" xmlns="http://www.w3.org/2000/svg">
<path d="M8.44857 13.9465H3.99531V22.6883H0V0H8.08536C10.7384 0 12.786 0.586947 14.2283 1.76084C15.6706 2.93473 16.3918 4.63324 16.3918 6.85637C16.3918 8.37308 16.0181 9.64566 15.2706 10.6741C14.5336 11.6922 13.5019 12.4765 12.1754 13.0271L17.3393 22.4858V22.6883H13.0598L8.44857 13.9465ZM3.99531 10.7832H8.10115C9.44871 10.7832 10.5015 10.4508 11.2595 9.78591C12.0175 9.11066 12.3965 8.19128 12.3965 7.02778C12.3965 5.81233 12.0438 4.87218 11.3385 4.20732C10.6436 3.54246 9.60137 3.19964 8.21169 3.17886H3.99531V10.7832Z" fill="black"/>
<path d="M37 0V15.1619C37 17.572 36.2157 19.4835 34.647 20.8963C33.0889 22.2988 31.0097 23 28.4093 23C25.7774 23 23.6876 22.3092 22.14 20.9275C20.5924 19.5355 19.8186 17.6084 19.8186 15.1463V0H23.7981V15.1775C23.7981 16.6942 24.1877 17.8525 24.9667 18.6524C25.7458 19.4523 26.8933 19.8523 28.4093 19.8523C31.4834 19.8523 33.0205 18.2525 33.0205 15.0528V0H37Z" fill="black"/>
</svg>
