<svg width="48" height="48" viewBox="0 0 48 48" fill="none" xmlns="http://www.w3.org/2000/svg">
<path d="M24.0002 1.5L4.36523 5.82V25.5975C4.36523 31.26 7.59773 36.6375 13.0202 39.9825L24.0002 46.7325L34.9802 39.9825C40.4027 36.6375 43.6352 31.26 43.6352 25.5975V5.82L24.0002 1.5ZM40.6352 25.5975C40.6352 30.21 37.9352 34.5975 33.3977 37.4325L24.0002 43.2375L14.6027 37.4325C10.1027 34.635 7.36523 30.21 7.36523 25.5975V8.25L24.0002 4.5375L40.6352 8.25V25.5975Z" fill="black"/>
<path d="M15.1645 21.331L13.042 23.4535L20.4445 30.856L34.957 16.351L32.8345 14.2285L20.4445 26.6185L15.1645 21.331Z" fill="black"/>
</svg>
