<svg width="58" height="58" viewBox="0 0 58 58" fill="none" xmlns="http://www.w3.org/2000/svg">
<g clip-path="url(#clip0)">
<path d="M39.8747 48.3327H18.1247C14.7945 48.3327 12.083 45.6236 12.083 42.291V15.7077C12.083 12.3751 14.7945 9.66602 18.1247 9.66602H39.8747C43.2048 9.66602 45.9163 12.3751 45.9163 15.7077V42.291C45.9163 45.6236 43.2048 48.3327 39.8747 48.3327ZM18.1247 12.0827C16.1261 12.0827 14.4997 13.7091 14.4997 15.7077V42.291C14.4997 44.2896 16.1261 45.916 18.1247 45.916H39.8747C41.8733 45.916 43.4997 44.2896 43.4997 42.291V15.7077C43.4997 13.7091 41.8733 12.0827 39.8747 12.0827H18.1247Z" fill="#808192"/>
<path d="M35.042 36.25C34.7327 36.25 34.4233 36.1316 34.1865 35.8972L28.1448 29.8555C27.9201 29.6283 27.792 29.3214 27.792 29V19.3333C27.792 18.6663 28.3333 18.125 29.0003 18.125C29.6673 18.125 30.2087 18.6663 30.2087 19.3333V28.4998L35.8975 34.1886C36.3688 34.6598 36.3688 35.4259 35.8975 35.8972C35.6607 36.1316 35.3513 36.25 35.042 36.25Z" fill="#808192"/>
<path d="M36.2503 58.0006H21.7503C21.2477 58.0006 20.7957 57.6889 20.6193 57.2176L16.9943 47.551C16.7599 46.9251 17.0765 46.229 17.7 45.9946C18.3259 45.7505 19.0219 46.0744 19.2563 46.7003L22.5889 55.584H35.4141L38.7443 46.7003C38.9787 46.0744 39.6723 45.7481 40.3006 45.9946C40.9241 46.229 41.2407 46.9251 41.0063 47.551L37.3813 57.2176C37.2049 57.6889 36.753 58.0006 36.2503 58.0006Z" fill="#808192"/>
<path d="M39.8753 12.0833C39.3871 12.0833 38.9256 11.7837 38.7443 11.3003L35.4117 2.41667H22.5889L19.2563 11.3003C19.0219 11.9238 18.3259 12.2477 17.7 12.006C17.0765 11.7716 16.7599 11.0756 16.9943 10.4497L20.6193 0.783C20.7957 0.31175 21.2477 0 21.7503 0H36.2503C36.753 0 37.2049 0.31175 37.3813 0.783L41.0063 10.4497C41.2407 11.0756 40.9241 11.7716 40.3006 12.006C40.1605 12.0592 40.0179 12.0833 39.8753 12.0833Z" fill="#808192"/>
</g>
<defs>
<clipPath id="clip0">
<rect width="58" height="58" fill="white"/>
</clipPath>
</defs>
</svg>
