<svg width="58" height="58" viewBox="0 0 58 58" fill="none" xmlns="http://www.w3.org/2000/svg">
<path d="M33.8335 2.90039H24.1668C23.6333 2.90039 23.2002 3.33346 23.2002 3.86702C23.2002 4.40057 23.6333 4.83365 24.1668 4.83365H33.8335C34.367 4.83365 34.8001 4.40057 34.8001 3.86702C34.8001 3.33346 34.367 2.90039 33.8335 2.90039Z" fill="#808192"/>
<path d="M40.6002 2.90039H39.6336C39.1001 2.90039 38.667 3.33346 38.667 3.86702C38.667 4.40057 39.1001 4.83365 39.6336 4.83365H40.6002C41.1338 4.83365 41.5669 4.40057 41.5669 3.86702C41.5669 3.33346 41.1338 2.90039 40.6002 2.90039Z" fill="#808192"/>
<path d="M30.201 49.3008H27.8008C26.3305 49.3008 25.1338 50.4975 25.1338 51.9678V52.4347C25.1338 53.905 26.3305 55.1008 27.7999 55.1008H30.2001C31.6703 55.1008 32.867 53.905 32.867 52.4347V51.9678C32.867 50.4975 31.6703 49.3008 30.201 49.3008ZM30.9338 52.4347C30.9338 52.8388 30.6052 53.1674 30.2011 53.1674H27.8008C27.3958 53.1674 27.067 52.8388 27.067 52.4347V51.9678C27.067 51.5628 27.3957 51.234 27.8008 51.234H30.2001C30.6052 51.234 30.9338 51.5627 30.9338 51.9678V52.4347Z" fill="#808192"/>
<path d="M41.9396 0H16.0609C14.1343 0 12.5664 1.56793 12.5664 3.4945V54.5055C12.5664 56.4321 14.1343 58 16.0609 58H41.9385C43.8651 58 45.433 56.4321 45.433 54.5065V3.4945C45.4331 1.56793 43.8652 0 41.9396 0ZM43.4998 54.5055C43.4998 55.3659 42.7999 56.0666 41.9396 56.0666H16.0609C15.1996 56.0666 14.4998 55.3658 14.4998 54.5064V3.4945C14.4998 2.63413 15.1996 1.93337 16.0609 1.93337H41.9385C42.7998 1.93337 43.4997 2.63424 43.4997 3.4945V54.5055H43.4998Z" fill="#808192"/>
<path d="M44.4663 5.80078H13.533C12.9995 5.80078 12.5664 6.23386 12.5664 6.76741V47.3674C12.5664 47.901 12.9995 48.334 13.533 48.334H44.4664C45 48.334 45.433 47.901 45.433 47.3674V6.76741C45.433 6.23386 45 5.80078 44.4663 5.80078ZM43.4997 46.4008H14.4997V7.73415H43.4997V46.4008Z" fill="#808192"/>
</svg>
