<svg width="58" height="58" viewBox="0 0 58 58" fill="none" xmlns="http://www.w3.org/2000/svg">
<g clip-path="url(#clip0)">
<path d="M53.8574 30.5544L53.8574 27.4473L51.786 27.4473L51.786 30.5544L53.8574 30.5544Z" fill="#808192"/>
<path d="M10.3574 29C10.3574 27.0014 8.73104 25.375 6.73242 25.375C4.7338 25.375 3.10742 27.0014 3.10742 29C3.10742 30.9986 4.7338 32.625 6.73242 32.625C8.73104 32.625 10.3574 30.9986 10.3574 29ZM5.17877 29C5.17877 28.1433 5.87568 27.4465 6.73231 27.4465C7.58894 27.4465 8.28585 28.1434 8.28585 29C8.28585 29.8566 7.58894 30.5535 6.73231 30.5535C5.87568 30.5535 5.17877 29.8567 5.17877 29Z" fill="#808192"/>
<path d="M58 46.0835L58 11.917C58 9.05865 55.6802 6.73242 52.8291 6.73242L5.17106 6.73242C2.31977 6.73242 0.000114339 9.05876 0.000114214 11.9171L0.000112721 46.0835C0.000112596 48.9418 2.31989 51.2681 5.17106 51.2681L52.829 51.2682C55.6802 51.268 58 48.9418 58 46.0835ZM5.17095 49.1967C3.46165 49.1967 2.07134 47.7999 2.07134 46.0835L2.07135 11.917C2.07135 10.2005 3.46154 8.80377 5.17095 8.80377L52.8291 8.80377C54.5384 8.80377 55.9287 10.2005 55.9287 11.917L55.9287 46.0834C55.9287 47.7998 54.5385 49.1966 52.829 49.1966L5.17095 49.1966L5.17095 49.1967Z" fill="#808192"/>
</g>
<defs>
<clipPath id="clip0">
<rect width="58" height="58" fill="white" transform="translate(58) rotate(90)"/>
</clipPath>
</defs>
</svg>
