<svg width="48" height="48" viewBox="0 0 48 48" fill="none" xmlns="http://www.w3.org/2000/svg">
<path d="M45.8175 24.2013V17.455C45.8175 15.1674 44.0431 13.307 41.8012 13.1266L35.5361 2.18358C34.9555 1.17151 34.018 0.448145 32.8962 0.147775C31.7797 -0.15055 30.6122 0.00612962 29.6129 0.587745L8.13566 13.0914H4.3636C1.95706 13.0914 0 15.0484 0 17.455V43.6364C0 46.0429 1.95696 48 4.3636 48H41.4539C43.8605 48 45.8175 46.043 45.8175 43.6364V36.8901C47.0846 36.4383 47.9993 35.2387 47.9993 33.8184V27.273C47.9993 25.8527 47.0846 24.6531 45.8175 24.2013ZM39.266 13.0914H29.7578L36.8891 8.93961L39.266 13.0914ZM35.8051 7.04626L25.4216 13.0914H21.1147L34.7282 5.1654L35.8051 7.04626ZM30.7112 2.47332C31.2044 2.18461 31.7807 2.1079 32.3316 2.25497C32.8887 2.40408 33.3532 2.76418 33.642 3.26806L33.6442 3.27205L16.7787 13.0914H12.472L30.7112 2.47332ZM43.6357 43.6364C43.6357 44.8391 42.6566 45.8181 41.4539 45.8181H4.3636C3.16089 45.8181 2.18185 44.8391 2.18185 43.6364V17.455C2.18185 16.2523 3.16089 15.2733 4.3636 15.2733H41.4539C42.6566 15.2733 43.6357 16.2523 43.6357 17.455V24.0003H37.0903C33.481 24.0003 30.545 26.9363 30.545 30.5457C30.545 34.155 33.481 37.091 37.0903 37.091H43.6357V43.6364ZM45.8175 33.8184C45.8175 34.4202 45.3286 34.9093 44.7266 34.9093H37.0903C34.6838 34.9093 32.7267 32.9523 32.7267 30.5457C32.7267 28.1392 34.6837 26.1821 37.0903 26.1821H44.7266C45.3285 26.1821 45.8175 26.6711 45.8175 27.273V33.8184Z" fill="black"/>
</svg>
